<?xml version="1.0" standalone="no"?>
<!DOCTYPE svg PUBLIC "-//W3C//DTD SVG 20010904//EN"
 "http://www.w3.org/TR/2001/REC-SVG-20010904/DTD/svg10.dtd">
<svg version="1.0" xmlns="http://www.w3.org/2000/svg"
 width="742.000000pt" height="742.000000pt" viewBox="0 0 742.000000 742.000000"
 preserveAspectRatio="xMidYMid meet">
<metadata>
Created by potrace 1.11, written by Peter Selinger 2001-2013
</metadata>
<g transform="translate(0.000000,742.000000) scale(0.100000,-0.100000)"
fill="#000000" stroke="none">
<path d="M4529 6016 c-2 -3 -16 -7 -29 -9 -89 -17 -174 -97 -209 -197 -24 -66
-21 -196 5 -300 43 -167 47 -236 20 -290 -16 -34 -23 -66 -8 -43 4 7 27 21 51
32 35 15 61 18 125 16 45 -2 92 -6 106 -10 65 -16 207 -17 267 -1 154 39 245
144 246 285 1 78 -16 118 -76 174 -53 49 -99 69 -166 71 l-55 1 -3 44 c-5 80
-67 167 -147 205 -33 16 -118 30 -127 22z"/>
<path d="M2465 5834 c-22 -13 -49 -28 -60 -33 -11 -5 -17 -10 -13 -10 4 -1 -8
-17 -28 -36 -19 -19 -32 -40 -29 -45 3 -6 1 -10 -5 -10 -6 0 -8 -4 -5 -10 3
-5 1 -10 -4 -10 -16 0 -13 -39 4 -56 16 -16 60 -10 50 7 -4 5 -1 9 5 9 6 0 8
5 5 10 -3 6 -1 10 4 10 6 0 10 4 9 9 -4 12 52 81 65 81 6 0 18 6 26 14 20 18
66 32 57 18 -3 -6 1 -9 10 -8 8 1 20 9 25 17 6 9 9 10 9 2 0 -7 7 -10 17 -6
12 5 14 3 8 -8 -6 -11 -5 -12 6 -1 18 16 29 15 29 -3 0 -8 3 -14 8 -14 20 3
32 -2 32 -16 0 -8 3 -15 8 -15 4 0 13 -9 20 -21 11 -17 11 -20 0 -13 -14 8 20
-36 37 -48 5 -4 14 0 19 9 7 13 10 13 17 2 5 -9 8 -1 7 24 -1 21 -5 40 -10 43
-4 3 -5 11 -2 17 4 7 3 9 -1 4 -5 -4 -15 7 -22 24 -7 17 -17 28 -22 25 -5 -4
-12 3 -16 14 -6 17 -23 25 -47 21 -5 0 -8 4 -8 10 0 6 -9 9 -20 6 -11 -3 -18
-1 -14 4 3 5 -22 9 -56 9 -38 0 -59 -4 -55 -10 3 -5 -1 -10 -10 -10 -9 0 -13
5 -10 10 8 13 8 13 -40 -16z"/>
<path d="M979 5763 c0 -12 -2 -14 -6 -4 -5 11 -7 11 -14 0 -7 -12 -9 -11 -9 1
0 10 -7 7 -21 -10 -11 -14 -18 -19 -14 -12 6 11 3 11 -14 0 -12 -7 -21 -16
-21 -20 0 -4 -11 -19 -25 -34 -13 -14 -22 -30 -19 -35 3 -5 0 -9 -6 -9 -6 0
-9 -4 -6 -9 3 -5 -2 -12 -12 -16 -16 -6 -16 -7 1 -20 10 -7 19 -17 19 -22 1
-11 42 -4 46 8 2 5 8 7 13 4 5 -4 6 1 3 10 -4 8 -1 21 5 29 6 7 7 17 3 21 -4
5 -1 5 6 1 7 -4 15 -1 18 9 6 15 64 52 64 40 0 -3 9 -1 20 5 15 8 20 8 20 -2
0 -9 3 -9 11 -1 9 9 18 7 37 -5 15 -9 23 -12 19 -5 -12 19 32 2 47 -18 7 -10
16 -16 19 -12 4 3 7 1 7 -6 0 -7 5 -9 12 -5 6 4 8 3 4 -4 -3 -6 3 -17 15 -26
12 -8 18 -19 15 -24 -3 -6 -1 -12 4 -14 6 -2 12 -13 13 -25 1 -15 9 -23 29
-25 15 -3 25 -1 22 4 -3 4 1 10 8 13 8 3 14 15 15 25 1 13 -2 18 -9 14 -7 -5
-9 -1 -5 9 4 10 1 17 -5 17 -6 0 -9 3 -5 6 6 7 -6 24 -40 56 -12 12 -20 24
-18 28 3 5 -2 11 -11 14 -10 4 -13 2 -8 -6 4 -7 3 -8 -4 -4 -7 4 -12 15 -13
24 0 11 -2 12 -6 4 -3 -8 -11 -5 -25 10 -11 13 -16 16 -12 8 6 -12 4 -12 -12
1 -10 9 -25 14 -32 12 -7 -3 -19 1 -27 7 -12 10 -15 10 -15 -1 0 -9 -3 -10 -8
-4 -10 14 -32 17 -32 5 0 -7 -6 -7 -20 0 -16 9 -20 8 -21 -7z"/>
<path d="M3888 5609 c-23 -9 -57 -34 -76 -55 -20 -24 -36 -34 -40 -28 -12 19
-71 44 -110 48 -170 14 -272 -165 -185 -326 36 -66 88 -110 193 -161 114 -56
168 -95 191 -137 16 -31 18 -32 19 -12 0 45 32 91 131 191 111 111 149 177
154 264 9 160 -135 272 -277 216z"/>
<path d="M3003 5614 c10 -16 -18 -25 -33 -11 -9 9 -11 9 -7 1 9 -16 -18 -25
-32 -11 -8 8 -11 8 -11 -1 0 -7 -5 -12 -11 -12 -5 0 -7 6 -4 13 4 6 0 4 -8 -5
-10 -13 -16 -15 -25 -6 -7 7 -12 8 -12 2 0 -5 -21 -11 -46 -11 -25 -1 -51 -6
-58 -12 -9 -7 -16 -7 -24 1 -9 9 -12 9 -12 -1 0 -10 -3 -11 -14 -2 -9 8 -16 9
-21 2 -3 -6 -19 -9 -35 -7 -17 2 -30 -1 -30 -5 0 -5 -5 -9 -11 -9 -5 0 -7 5
-3 11 4 7 -3 6 -17 -2 -29 -16 -48 -17 -71 -6 -12 5 -18 4 -18 -4 0 -8 -5 -7
-17 2 -14 12 -15 12 -9 0 7 -10 2 -12 -23 -6 -20 4 -31 3 -31 -5 0 -8 -6 -8
-21 1 -17 8 -20 8 -14 -1 5 -9 1 -10 -15 -5 -17 5 -21 4 -15 -5 6 -9 4 -11 -6
-5 -19 12 -49 14 -55 3 -3 -4 -10 -8 -15 -8 -6 0 -7 6 -3 13 5 8 2 8 -9 -2 -9
-7 -17 -10 -17 -6 0 4 -6 2 -13 -4 -8 -6 -17 -8 -21 -4 -10 10 -46 11 -46 1 0
-4 -5 -8 -11 -8 -5 0 -7 6 -4 13 4 6 -1 3 -9 -7 -15 -18 -20 -15 -17 9 1 6 -6
1 -14 -9 -14 -18 -20 -15 -16 8 1 5 -5 3 -14 -4 -19 -16 -53 -21 -61 -8 -3 4
-11 5 -17 1 -20 -12 -37 -12 -37 0 0 8 -4 7 -9 -2 -5 -8 -18 -12 -30 -8 -12 3
-21 1 -21 -4 0 -5 -5 -9 -11 -9 -5 0 -8 4 -5 9 3 4 -6 6 -19 3 -14 -2 -25 -9
-25 -14 0 -5 -5 -6 -10 -3 -6 4 -8 12 -4 18 3 7 -2 3 -10 -7 -9 -11 -16 -15
-16 -9 0 11 -32 10 -70 -2 -13 -4 -20 -3 -17 2 4 5 0 10 -8 10 -8 0 -12 -4 -9
-9 3 -4 0 -8 -5 -8 -6 0 -11 6 -11 13 0 8 -4 7 -10 -3 -8 -13 -13 -13 -31 -2
-15 10 -19 10 -14 1 6 -8 -1 -10 -24 -7 -18 3 -31 0 -31 -6 0 -6 -5 -4 -10 4
-5 8 -10 10 -10 4 0 -5 -13 -9 -30 -8 -17 1 -30 -3 -30 -9 0 -8 -3 -9 -8 -1
-8 11 -72 14 -72 2 0 -8 -21 -5 -37 5 -7 5 -13 4 -13 -2 0 -11 -19 -9 -39 3
-10 7 -12 6 -6 -4 6 -10 1 -12 -19 -8 -15 3 -26 1 -26 -6 0 -6 -5 -4 -10 4 -9
13 -10 13 -10 0 0 -9 -3 -11 -8 -5 -8 12 -44 16 -37 5 3 -4 -20 -6 -50 -5 -40
2 -53 0 -49 -8 5 -9 4 -9 -6 0 -8 8 -20 9 -36 3 -17 -7 -24 -6 -24 3 0 8 -4 7
-10 -3 -7 -11 -10 -11 -10 -2 0 10 -5 10 -20 2 -15 -8 -20 -8 -20 2 0 6 -7 3
-16 -8 -8 -10 -13 -14 -10 -8 3 7 -1 15 -10 18 -8 3 -12 2 -9 -4 4 -6 -5 -10
-20 -10 -18 0 -24 4 -19 13 6 9 5 9 -7 0 -8 -6 -34 -12 -58 -11 -24 0 -47 -5
-51 -12 -5 -8 -9 -7 -13 5 -5 11 -11 13 -24 7 -10 -5 -24 -7 -32 -4 -10 3 -11
0 -5 -9 6 -12 5 -12 -8 -1 -12 9 -18 10 -23 2 -4 -7 -11 -8 -18 -2 -7 5 -21 6
-32 2 -11 -4 -28 -3 -37 2 -11 5 -18 5 -18 -1 0 -10 -19 -9 -36 2 -7 4 -16 1
-21 -6 -14 -18 -14 -57 0 -57 7 0 6 -4 -3 -10 -12 -7 -12 -10 -1 -10 7 0 11
-6 7 -15 -3 -8 -2 -15 3 -15 4 0 7 -16 6 -35 -1 -19 3 -35 8 -35 5 0 4 -7 -3
-15 -11 -13 -8 -18 10 -17 3 0 5 -10 5 -23 0 -15 -5 -21 -14 -17 -10 4 -9 -1
3 -20 13 -21 14 -27 4 -31 -7 -3 -8 -6 -2 -6 6 -1 9 -14 6 -31 -3 -21 0 -30 9
-30 12 0 12 -2 1 -9 -17 -11 -17 -21 0 -32 8 -6 9 -9 1 -9 -12 0 -12 -24 0
-36 3 -4 2 -15 -3 -25 -7 -12 -6 -20 1 -25 8 -4 7 -9 -2 -15 -9 -6 -10 -9 -2
-9 8 0 7 -9 -4 -30 -8 -17 -19 -28 -24 -25 -5 4 -6 -1 -3 -9 3 -9 1 -16 -5
-16 -6 0 -11 -9 -11 -19 0 -11 -7 -27 -16 -35 -8 -9 -12 -16 -8 -16 5 0 3 -5
-4 -12 -8 -8 -9 -15 -1 -25 8 -9 7 -14 -4 -19 -9 -3 -14 -15 -12 -30 1 -14 -4
-31 -11 -38 -7 -8 -10 -16 -7 -20 9 -9 11 -46 3 -46 -10 0 -6 -54 5 -62 6 -5
5 -8 -4 -8 -11 0 -11 -3 -1 -15 10 -12 10 -15 -1 -15 -10 -1 -9 -5 4 -14 14
-11 15 -15 5 -19 -11 -4 -10 -7 1 -15 9 -6 10 -12 2 -16 -7 -4 -4 -19 10 -42
11 -20 14 -32 8 -29 -6 4 -4 -4 5 -17 9 -14 13 -28 9 -31 -3 -4 -1 -7 5 -7 7
0 11 -3 10 -7 -3 -16 25 -62 35 -56 6 4 7 1 3 -6 -5 -7 -1 -20 7 -29 16 -17
19 -93 5 -108 -5 -4 -2 -14 5 -22 10 -12 9 -16 -1 -20 -10 -3 -10 -7 -1 -18 9
-11 9 -17 0 -28 -9 -11 -9 -16 0 -21 8 -6 7 -10 -2 -16 -8 -5 -9 -9 -3 -9 16
0 10 -35 -9 -54 -9 -10 -17 -13 -17 -8 0 5 -16 9 -35 8 -19 0 -35 -5 -35 -11
0 -5 -5 -3 -10 5 -6 10 -10 11 -10 2 0 -6 -3 -11 -7 -11 -27 4 -63 -3 -58 -11
3 -6 -1 -7 -9 -4 -9 4 -16 1 -16 -6 0 -9 -4 -9 -17 1 -14 12 -16 12 -8 0 6
-11 4 -13 -9 -8 -11 5 -15 3 -10 -5 5 -8 2 -9 -10 -5 -10 4 -15 3 -11 -3 3 -6
-5 -14 -18 -19 -14 -6 -31 -19 -39 -30 -8 -12 -17 -19 -20 -16 -3 3 -13 -13
-24 -35 -10 -22 -22 -40 -26 -40 -5 0 -8 -11 -8 -24 0 -14 -4 -27 -8 -30 -13
-8 -15 -126 -3 -126 6 0 11 -7 11 -15 0 -23 30 -65 47 -65 8 0 12 -3 10 -7 -3
-5 1 -14 9 -21 8 -7 14 -10 14 -6 0 4 9 -1 19 -10 11 -10 25 -15 30 -11 6 3
11 1 11 -5 0 -6 5 -8 10 -5 6 3 10 1 10 -5 0 -6 5 -8 10 -5 6 3 10 2 10 -3 0
-5 12 -7 27 -4 22 4 25 2 20 -12 -4 -10 -3 -15 3 -11 6 3 10 -1 10 -9 0 -9 5
-16 11 -16 5 0 8 -4 4 -9 -7 -12 29 -33 39 -24 3 3 6 2 6 -4 0 -6 13 -10 29
-9 17 1 28 -2 25 -6 -3 -4 -1 -8 5 -8 5 0 15 8 20 18 6 9 11 11 11 5 0 -7 5
-13 11 -13 5 0 7 6 3 13 -4 6 -3 9 1 4 15 -13 16 -49 3 -65 -11 -13 -11 -14 1
-7 11 6 13 2 9 -18 -3 -14 -1 -32 3 -39 5 -7 3 -16 -4 -20 -9 -6 -9 -8 1 -8
10 0 10 -5 2 -20 -9 -17 -8 -20 7 -20 10 0 14 -3 8 -8 -11 -7 -11 -27 -1 -69
2 -13 0 -26 -6 -29 -7 -5 -8 -2 -3 6 6 9 4 11 -5 5 -10 -6 -9 -11 4 -21 14
-10 15 -17 8 -31 -8 -13 -6 -23 6 -37 11 -13 12 -17 3 -11 -11 6 -13 4 -8 -8
3 -9 2 -19 -4 -23 -6 -4 -6 -11 2 -20 6 -7 9 -33 8 -57 -3 -33 -1 -43 9 -40
18 7 15 -8 -6 -24 -9 -8 -12 -12 -5 -9 6 4 14 2 18 -4 3 -5 1 -10 -6 -10 -9 0
-9 -3 0 -14 9 -11 9 -16 0 -21 -8 -6 -8 -10 2 -15 10 -7 10 -12 0 -23 -9 -11
-9 -17 -1 -22 6 -4 9 -13 6 -21 -3 -8 0 -14 7 -14 8 0 6 -4 -3 -10 -13 -9 -13
-10 0 -10 13 0 13 -1 0 -10 -12 -8 -12 -10 -1 -10 11 0 11 -3 0 -17 -12 -14
-12 -16 0 -8 11 6 13 3 9 -13 -4 -12 -1 -22 4 -22 7 0 6 -5 -1 -14 -8 -10 -9
-16 -1 -21 5 -3 10 -15 10 -25 0 -10 5 -22 12 -26 8 -5 9 -1 5 12 -6 16 -5 17
5 4 7 -8 28 -15 46 -14 17 1 32 -4 32 -10 0 -8 2 -8 8 0 8 13 50 13 70 1 6 -5
12 -4 12 2 0 10 25 9 36 -2 4 -4 13 -2 21 4 10 9 13 8 13 -1 0 -10 3 -10 15 0
12 10 15 10 15 -1 0 -12 2 -12 9 0 6 10 10 10 16 1 6 -9 10 -9 16 1 7 11 9 11
9 1 0 -8 5 -10 12 -5 20 12 39 12 32 1 -4 -6 1 -6 13 1 11 6 23 7 27 4 9 -9
57 -13 52 -4 -6 9 25 8 41 -2 6 -4 15 -3 18 3 4 7 11 7 18 2 7 -5 19 -8 27 -7
13 2 16 -8 15 -52 0 -30 3 -60 7 -66 4 -6 2 -19 -3 -29 -6 -11 -6 -18 0 -18 5
0 7 -9 4 -21 -4 -12 0 -25 8 -30 8 -5 9 -9 4 -9 -6 0 -11 -9 -12 -20 -1 -11 3
-18 8 -14 12 7 7 -19 -6 -28 -6 -5 -5 -8 4 -8 11 0 11 -3 1 -15 -12 -14 -7
-19 15 -16 6 1 1 -6 -9 -14 -11 -8 -14 -15 -8 -15 13 0 12 -27 -2 -49 -7 -10
-6 -12 4 -6 10 6 12 3 8 -13 -3 -12 -1 -24 6 -27 8 -3 8 -7 -2 -11 -6 -3 -9
-11 -5 -16 4 -7 -2 -9 -15 -6 -12 4 -22 2 -22 -2 0 -5 -9 -7 -20 -5 -11 2 -20
-1 -20 -7 0 -6 -11 -8 -24 -6 -16 3 -27 0 -30 -9 -3 -8 -10 -12 -15 -8 -5 3
-12 1 -16 -4 -3 -6 -12 -8 -19 -5 -7 3 -16 -2 -20 -11 -3 -10 -12 -15 -20 -12
-8 3 -22 -3 -31 -13 -10 -11 -21 -17 -25 -15 -4 3 -11 -2 -14 -11 -3 -8 -10
-12 -16 -9 -5 3 -10 -1 -10 -10 0 -8 -7 -18 -15 -21 -8 -4 -12 -10 -9 -15 3
-5 0 -9 -6 -9 -6 0 -8 -4 -5 -10 3 -5 1 -10 -6 -10 -7 0 -9 -3 -6 -6 3 -4 2
-15 -4 -26 -8 -14 -7 -24 3 -36 8 -10 9 -13 1 -9 -8 5 -11 0 -10 -13 1 -11 5
-20 9 -20 4 0 8 -5 8 -11 0 -5 -4 -7 -10 -4 -5 3 0 -9 13 -28 12 -19 25 -33
29 -30 5 2 8 -3 8 -11 0 -9 5 -16 11 -16 5 0 7 6 3 12 -4 7 2 5 14 -5 12 -11
26 -16 33 -11 8 4 10 3 5 -4 -5 -9 11 -12 58 -12 71 0 99 7 90 22 -4 7 0 6 12
0 14 -7 25 -6 38 4 10 7 23 11 27 8 5 -3 9 -1 9 4 0 6 7 13 16 16 8 3 12 2 9
-4 -7 -11 41 7 64 24 12 9 13 8 6 -4 -7 -12 -6 -13 6 -3 8 6 23 13 34 15 11 1
26 11 33 21 7 9 20 17 29 17 9 0 13 3 10 7 -4 3 3 18 15 31 20 22 21 24 4 18
-16 -5 -17 -4 -6 9 7 8 9 15 5 15 -4 0 -2 7 5 15 10 12 10 15 0 15 -9 0 -9 4
1 17 12 15 12 16 -1 8 -13 -8 -13 -7 -1 8 7 9 9 17 4 17 -5 0 -9 17 -10 39 -1
26 -10 48 -27 66 -14 16 -26 25 -26 21 0 -4 -7 0 -16 8 -8 9 -19 15 -22 13 -4
-2 -15 4 -24 15 -10 10 -15 18 -10 18 11 0 1 114 -12 122 -8 6 -8 8 2 8 6 0
12 7 12 15 0 8 -5 15 -11 15 -8 0 -8 5 1 15 10 12 10 15 -1 15 -9 0 -10 3 -4
8 13 9 17 32 6 32 -11 0 -9 19 3 39 6 10 5 12 -2 7 -8 -5 -12 0 -12 13 0 11 5
23 11 26 7 5 4 14 -7 26 -13 15 -14 19 -3 19 11 0 11 2 -1 10 -13 8 -13 10 -1
10 12 0 12 3 3 12 -16 16 -15 31 1 22 8 -5 8 -2 -2 9 -12 16 -9 19 15 16 4 0
11 5 15 13 7 10 9 10 9 0 0 -9 5 -10 18 -3 13 7 23 6 30 -1 9 -9 12 -9 12 1 0
10 3 11 14 2 10 -9 16 -9 21 -1 5 8 11 8 19 1 9 -7 17 -7 26 2 10 10 11 9 5
-3 -6 -12 -5 -13 6 -2 17 16 32 16 23 0 -5 -9 -2 -9 9 1 13 10 17 10 17 1 0
-9 4 -9 17 1 15 12 16 12 8 -1 -8 -13 -7 -13 8 -1 13 10 20 11 31 2 10 -9 16
-9 21 -1 5 8 10 8 20 0 10 -8 15 -8 20 0 5 8 11 8 19 1 7 -6 16 -8 20 -4 13
13 49 13 64 1 13 -11 14 -11 7 1 -6 11 -2 13 19 7 21 -5 26 -4 20 6 -6 10 -3
9 9 -1 13 -10 17 -10 17 -1 0 10 3 10 15 0 11 -9 15 -9 15 -1 0 9 5 9 20 1 11
-6 20 -7 20 -3 0 4 36 7 80 7 53 -1 80 3 80 10 0 6 4 5 9 -3 8 -13 12 -13 27
0 16 12 17 12 9 -1 -8 -13 -7 -13 8 -1 13 10 17 10 17 1 0 -9 4 -9 17 1 14 12
15 12 9 1 -7 -11 -4 -12 13 -3 16 9 21 9 21 -1 0 -6 7 -3 16 8 8 10 13 14 10
8 -3 -7 1 -15 10 -18 8 -3 13 -2 10 3 -3 5 30 8 74 7 60 -1 80 2 80 12 0 7 5
10 10 7 6 -4 7 -12 3 -18 -3 -7 4 -3 17 8 l23 20 -7 -20 c-6 -16 -5 -18 5 -7
17 16 46 16 52 0 7 -22 -5 -202 -14 -220 -7 -13 -6 -18 3 -18 9 0 10 -3 2 -8
-6 -4 -12 -38 -13 -77 -2 -61 -5 -103 -10 -127 0 -4 -10 -5 -21 -3 -11 2 -18
0 -15 -4 4 -8 -21 -25 -35 -24 -3 0 -14 -8 -25 -20 -12 -12 -14 -17 -5 -13 9
5 8 2 -2 -7 -10 -8 -15 -17 -11 -20 3 -4 0 -13 -7 -22 -10 -12 -10 -15 1 -15
11 0 11 -2 -1 -10 -13 -9 -13 -10 0 -10 12 0 12 -2 2 -9 -8 -4 -14 -12 -14
-16 0 -4 6 -12 14 -16 10 -7 10 -9 0 -9 -9 0 -10 -5 -3 -19 6 -10 7 -21 4 -25
-11 -10 -12 -37 -2 -30 5 3 9 -2 9 -11 0 -8 7 -18 15 -21 8 -4 12 -10 9 -15
-3 -5 0 -9 7 -9 7 0 20 -7 30 -16 9 -8 28 -17 41 -19 38 -4 53 -9 60 -20 5 -6
8 -5 8 3 0 8 8 6 22 -7 15 -15 25 -18 34 -11 8 7 13 6 17 -5 4 -8 13 -12 22
-9 9 4 15 1 15 -7 0 -11 3 -11 10 1 5 8 10 10 10 4 0 -7 7 -15 16 -18 10 -4
13 -2 8 7 -5 9 -4 9 6 0 7 -6 18 -9 25 -7 7 3 16 0 20 -6 5 -8 11 -8 21 1 11
9 14 8 14 -2 0 -12 2 -12 9 0 5 8 18 12 30 8 12 -3 21 -1 21 4 0 5 6 8 13 6 6
-1 11 4 9 11 -1 8 2 11 7 7 6 -3 19 3 31 15 11 11 17 20 12 20 -4 0 2 7 12 15
14 11 16 15 5 15 -12 0 -12 2 0 9 8 5 16 19 18 31 2 13 -1 19 -8 14 -8 -4 -8
0 0 15 9 15 9 21 1 21 -6 0 -10 8 -8 18 2 9 -3 23 -12 30 -13 12 -13 13 0 7 8
-4 4 3 -9 14 -14 13 -18 21 -10 21 8 1 1 8 -14 16 -15 8 -25 19 -22 24 3 6 -1
7 -9 4 -9 -4 -18 1 -22 10 -3 9 -14 16 -24 16 -10 0 -20 7 -24 15 -3 8 -12 12
-21 9 -8 -3 -15 -1 -15 5 0 6 -7 8 -17 4 -10 -4 -14 -2 -10 4 5 7 -1 9 -15 5
-13 -3 -19 -1 -15 5 6 10 -10 13 -65 14 -10 0 -20 4 -23 10 -4 5 -14 9 -23 9
-13 0 -17 8 -15 37 1 21 2 51 2 66 1 16 5 26 11 22 6 -4 7 2 2 17 -10 27 -9
39 1 55 4 6 4 14 -1 17 -5 3 -7 24 -5 48 2 24 5 76 7 116 1 47 8 78 17 86 10
10 58 16 159 21 213 11 217 11 315 20 50 4 105 8 124 10 38 2 53 19 41 49 -16
44 -36 344 -45 674 -2 90 0 115 11 119 8 3 20 1 27 -5 16 -12 43 -12 90 -1 27
7 44 20 62 49 16 25 35 42 53 46 152 32 235 149 198 275 -29 96 -86 162 -176
203 -59 27 -79 31 -180 41 -36 4 -69 10 -73 14 -9 9 -9 2 -4 177 4 129 5 132
37 178 36 54 84 156 94 201 3 17 9 41 12 55 6 31 6 199 0 209 -3 4 -8 23 -11
42 -13 75 -121 279 -147 279 -5 0 -7 4 -3 9 3 5 -4 12 -15 16 -11 3 -20 13
-20 21 0 8 -4 14 -8 14 -8 0 -9 8 -14 92 -2 25 -6 44 -9 42 -3 -1 -6 3 -6 11
0 8 5 15 11 15 6 0 5 4 -2 9 -8 4 -13 11 -13 15 4 31 -1 56 -10 50 -8 -4 -8 0
0 15 8 14 8 21 1 21 -7 0 -8 6 -1 19 8 14 7 22 -3 30 -7 6 -12 22 -10 36 1 14
-3 25 -9 25 -8 0 -7 3 1 9 8 4 14 12 14 16 0 4 -6 12 -14 16 -11 7 -10 11 2
19 12 8 12 10 -5 10 -15 0 -17 2 -6 9 9 6 10 11 3 15 -6 4 -8 14 -5 24 3 9 3
14 -2 10 -4 -4 -14 0 -21 10 -10 12 -13 13 -14 3 0 -11 -3 -11 -17 0 -9 8 -14
9 -10 3z m23 -93 c3 -14 7 -34 9 -44 2 -9 -1 -15 -6 -11 -5 3 -9 14 -9 25 0
11 -5 29 -10 40 -9 16 -15 17 -33 9 -21 -10 -21 -10 -4 4 25 19 46 10 53 -23z
m-76 20 c0 -5 -13 -11 -30 -13 -16 -3 -30 -1 -30 3 0 4 12 10 28 12 15 2 28 5
30 6 1 0 2 -3 2 -8z m-78 -13 c-6 -6 -30 -12 -53 -14 -23 -2 -39 0 -35 3 4 4
23 8 43 10 20 1 38 5 41 8 3 3 8 5 11 5 3 0 0 -5 -7 -12z m-102 -16 c0 -4 -11
-8 -24 -8 -14 0 -22 4 -20 8 3 4 14 8 25 8 10 0 19 -4 19 -8z m-155 -12 c3 -5
1 -10 -4 -10 -6 0 -11 5 -11 10 0 6 2 10 4 10 3 0 8 -4 11 -10z m95 2 c0 -5
-9 -8 -20 -7 -29 2 -33 10 -5 13 14 1 25 -2 25 -6z m-203 -19 c-9 -9 -78 -12
-72 -3 2 4 16 6 30 5 14 -2 28 1 31 7 3 5 9 7 12 4 3 -3 2 -9 -1 -13z m43 5
c0 6 9 12 20 12 11 0 20 -4 20 -10 0 -5 -6 -7 -14 -4 -8 3 -17 0 -21 -5 -8
-13 -25 -5 -25 12 0 7 4 6 10 -3 6 -10 10 -11 10 -2z m-130 -15 c0 -5 -23 -9
-51 -9 -28 -1 -46 1 -41 5 16 9 92 13 92 4z m-113 -10 c-4 -3 -39 -7 -78 -9
-40 -1 -68 1 -62 4 14 9 148 14 140 5z m-157 -14 c0 -4 -15 -6 -32 -6 -18 0
-59 -2 -90 -5 -32 -3 -58 -3 -58 1 0 4 26 8 57 9 31 1 58 4 60 6 7 6 63 2 63
-5z m-216 -12 c-5 -14 -64 -17 -64 -3 0 4 9 6 19 3 10 -2 25 -1 32 4 18 11 19
11 13 -4z m1112 -46 c3 -61 -6 -63 -11 -3 -2 23 -6 46 -10 53 -5 7 -3 10 6 7
8 -3 14 -24 15 -57z m-1191 40 c3 -5 0 -13 -6 -17 -8 -4 -9 -3 -5 4 5 8 -3 10
-26 7 -29 -4 -30 -4 -8 4 34 12 38 12 45 2z m-272 -18 c15 -1 25 2 23 6 -3 4
5 7 16 6 12 -1 23 -6 25 -12 3 -7 -4 -9 -18 -6 -16 5 -20 3 -14 -6 6 -10 3
-11 -13 -2 -11 6 -39 9 -61 6 -26 -3 -41 -1 -41 5 0 6 4 9 8 6 4 -2 14 -1 22
4 8 5 17 6 20 2 3 -4 17 -8 33 -9z m110 3 c5 -12 -2 -14 -31 -7 -2 1 0 6 3 11
9 14 22 12 28 -4z m87 6 c0 -9 -65 -10 -73 -2 -3 3 12 6 34 7 21 2 39 -1 39
-5z m-300 -22 c-8 -5 -25 -8 -37 -5 -13 2 -25 -1 -29 -6 -4 -6 -10 -7 -17 0
-18 14 -29 14 -38 -1 -7 -10 -9 -10 -9 3 0 12 13 16 61 17 34 1 64 4 67 7 3 3
8 3 11 -1 3 -3 -1 -9 -9 -14z m-200 -1 c0 3 11 7 25 7 17 1 25 -3 25 -15 0
-14 -2 -14 -10 -1 -5 8 -10 10 -10 4 0 -7 -17 -10 -45 -8 -30 2 -45 -1 -45 -9
0 -8 -3 -8 -8 -2 -4 6 -16 11 -27 11 -11 0 -23 -5 -27 -11 -5 -6 -8 -4 -8 5 0
13 -1 13 -10 0 -8 -12 -10 -12 -10 -1 0 11 -3 11 -15 1 -10 -8 -15 -9 -15 -2
0 6 -7 9 -15 6 -8 -4 -15 -2 -15 3 0 5 30 8 66 8 36 -1 67 2 70 6 2 4 20 3 39
-1 19 -4 35 -5 35 -1z m-430 -37 c0 -13 -2 -14 -9 -4 -11 18 -20 17 -38 -5 -8
-10 -12 -13 -9 -6 8 16 -13 28 -26 15 -7 -7 -18 -8 -27 -3 -9 5 -25 6 -36 4
-20 -4 -65 -6 -97 -4 -10 0 -18 5 -18 9 0 5 20 6 45 2 25 -4 45 -4 45 -1 0 4
34 6 75 6 41 0 75 3 75 8 0 4 5 5 10 2 6 -3 10 -14 10 -23z m85 16 c3 -3 -1
-8 -10 -11 -8 -4 -15 -1 -15 6 0 8 -4 6 -10 -3 -6 -9 -10 -11 -10 -3 0 7 -7
10 -15 7 -8 -4 -15 -2 -15 3 0 10 65 11 75 1z m45 0 c0 -4 -7 -8 -15 -8 -8 0
-15 4 -15 8 0 5 7 9 15 9 8 0 15 -4 15 -9z m80 4 c0 -4 -16 -8 -35 -8 -19 0
-35 3 -35 7 0 3 16 6 35 7 19 1 35 -2 35 -6z m327 -17 c0 -8 -4 -12 -9 -9 -5
3 -6 10 -3 15 9 13 12 11 12 -6z m-797 -34 c0 -10 3 -21 7 -25 4 -3 8 -23 8
-44 1 -20 3 -41 5 -47 5 -19 0 -36 -8 -31 -5 3 -10 27 -11 53 -2 26 -3 54 -4
61 0 6 -3 12 -6 12 -3 0 -7 11 -7 25 -1 14 2 22 7 19 5 -3 9 -13 9 -23z m441
12 c13 -16 12 -17 -3 -4 -17 13 -22 21 -14 21 2 0 10 -8 17 -17z m-304 -28 c0
-8 -4 -12 -9 -9 -5 3 -6 10 -3 15 9 13 12 11 12 -6z m2339 -30 c1 -19 -3 -35
-9 -35 -6 0 -8 3 -5 6 4 3 2 18 -2 34 -4 16 -6 31 -2 34 10 10 16 -3 18 -39z
m-2276 15 c0 -5 -2 -10 -4 -10 -3 0 -8 5 -11 10 -3 6 -1 10 4 10 6 0 11 -4 11
-10z m180 6 c0 -2 -7 -7 -16 -10 -8 -3 -12 -2 -9 4 6 10 25 14 25 6z m-123
-41 c0 -8 -4 -12 -9 -9 -5 3 -6 10 -3 15 9 13 12 11 12 -6z m1871 -30 c-3 -3
-9 2 -12 12 -6 14 -5 15 5 6 7 -7 10 -15 7 -18z m-48 5 c0 -5 -10 -10 -22 -10
-13 0 -34 -2 -48 -5 -14 -3 -7 2 15 9 50 18 55 18 55 6z m100 2 c0 -4 -9 -8
-20 -9 -11 -1 -20 2 -20 5 0 4 9 8 20 9 11 1 20 -2 20 -5z m60 -12 c0 -5 -8
-7 -17 -5 -10 2 -22 4 -28 4 -5 1 -4 5 4 10 15 10 41 4 41 -9z m243 -27 c4
-22 3 -33 -5 -33 -6 0 -9 3 -5 6 3 3 2 16 -3 29 -5 13 -6 26 -3 29 8 8 9 6 16
-31z m-2352 10 c13 -16 12 -17 -3 -4 -17 13 -22 21 -14 21 2 0 10 -8 17 -17z
m1849 7 c0 -5 -4 -10 -10 -10 -5 0 -10 5 -10 10 0 6 5 10 10 10 6 0 10 -4 10
-10z m350 -11 c18 -11 -34 -1 -65 13 -13 5 -9 6 15 2 19 -4 42 -10 50 -15z
m-384 -1 c4 -7 4 -10 -1 -6 -4 4 -14 3 -22 -3 -7 -6 -13 -9 -13 -5 0 4 -13 0
-30 -9 -16 -8 -32 -15 -35 -15 -3 1 -28 -15 -55 -34 -28 -20 -50 -33 -50 -28
0 6 87 66 100 68 3 0 25 10 50 22 54 26 47 25 56 10z m524 -60 c0 5 6 9 14 9
8 0 12 -6 9 -13 -6 -16 -21 -13 -66 15 -20 12 -45 24 -55 26 -9 2 -18 4 -20 4
-2 1 0 5 3 11 4 6 29 -5 61 -25 30 -19 54 -31 54 -27z m-445 20 c-16 -4 -31
-5 -33 -3 -8 7 42 23 53 17 5 -3 -4 -9 -20 -14z m92 15 c-11 -10 -57 -13 -57
-2 0 5 14 9 32 9 17 0 28 -3 25 -7z m63 -3 c0 -5 -9 -9 -20 -7 -31 5 -36 17
-7 17 15 0 27 -4 27 -10z m27 -5 c0 -8 -4 -12 -9 -9 -4 3 -8 9 -8 15 0 5 4 9
8 9 5 0 9 -7 9 -15z m60 0 c49 -11 117 -42 120 -55 4 -13 3 -13 -5 -1 -6 8
-23 14 -40 15 -17 0 -28 4 -26 8 6 9 -38 24 -77 27 -11 0 -17 6 -14 11 4 6 11
8 16 5 5 -4 17 -8 26 -10z m-2240 -11 c-3 -3 -12 -4 -19 -1 -8 3 -5 6 6 6 11
1 17 -2 13 -5z m153 -2 c0 -5 -7 -9 -15 -9 -8 0 -12 4 -9 9 3 4 9 8 15 8 5 0
9 -4 9 -8z m1800 -2 c0 -5 -13 -10 -30 -10 -16 0 -30 -5 -30 -11 0 -6 -6 -9
-14 -6 -8 3 -17 2 -20 -4 -2 -5 -3 -4 -2 3 2 7 7 13 12 14 5 0 16 3 24 7 49
19 60 20 60 7z m-1456 -9 c-13 -14 -94 -16 -94 -3 0 4 22 7 49 7 27 0 47 -2
45 -4z m45 -12 c-14 -8 -29 -3 -29 11 0 4 9 6 21 3 15 -4 17 -8 8 -14z m-547
-14 c-2 -14 1 -32 8 -40 7 -9 8 -15 2 -15 -11 0 -11 -18 1 -37 10 -15 -9 -53
-26 -53 -9 0 -9 2 0 8 10 6 11 80 2 128 -3 18 1 34 10 34 4 0 6 -11 3 -25z
m395 19 c-3 -3 -20 -7 -39 -10 -21 -2 -27 -1 -15 4 22 9 62 13 54 6z m254 -15
c35 -12 68 -26 74 -30 5 -5 -24 2 -64 16 -40 13 -77 22 -82 19 -5 -3 -9 0 -9
5 0 15 7 14 81 -10z m-331 2 c0 -8 -27 -18 -67 -27 -7 -1 -13 2 -13 8 0 6 6 8
13 5 7 -3 24 1 38 9 29 16 29 16 29 5z m1524 -14 c-3 -8 -12 -14 -21 -14 -13
0 -13 2 3 14 10 7 19 13 21 13 1 0 0 -6 -3 -13z m562 -7 c9 0 12 -5 9 -10 -8
-13 -35 6 -34 24 0 7 2 6 6 -1 2 -7 11 -13 19 -13z m-2196 -23 c-14 -6 -29
-15 -35 -20 -28 -21 -87 -57 -95 -57 -5 0 -14 -9 -20 -20 -15 -28 -49 -45 -63
-31 -8 8 -3 11 17 11 19 0 25 4 20 13 -4 6 -4 9 1 5 4 -4 16 4 27 17 11 14 24
25 29 25 5 0 28 12 52 28 48 31 68 41 82 41 6 0 -1 -6 -15 -12z m290 6 c0 -5
-23 -8 -50 -7 -28 0 -53 -3 -56 -8 -3 -5 -10 -6 -15 -2 -5 3 -7 8 -5 12 6 10
126 14 126 5z m110 -11 c3 -4 14 -8 25 -10 41 -5 49 -9 53 -23 2 -9 1 -10 -5
-3 -4 6 -16 10 -25 8 -10 -1 -18 2 -18 8 0 6 -6 8 -14 5 -8 -3 -17 -3 -21 1
-4 4 -11 8 -16 8 -5 1 -10 2 -11 4 -10 7 -39 7 -44 -1 -3 -5 -10 -7 -15 -3 -5
3 -7 9 -4 14 6 9 86 3 95 -8z m1080 -7 c-13 -14 -28 -25 -33 -25 -6 0 3 11 19
25 37 32 44 32 14 0z m98 4 c-9 -5 -24 -17 -33 -25 -17 -17 -29 -16 -17 1 11
16 56 43 62 38 3 -2 -3 -9 -12 -14z m-1728 1 c0 -5 -5 -10 -11 -10 -5 0 -7 5
-4 10 3 6 8 10 11 10 2 0 4 -4 4 -10z m292 1 c8 11 9 11 6 1 -4 -16 -22 -18
-24 -2 -2 7 -1 6 3 -1 4 -8 8 -7 15 2z m478 -37 c0 -2 -16 4 -35 13 -19 9 -35
20 -35 25 0 4 16 -2 35 -13 19 -12 35 -23 35 -25z m1610 36 c0 -5 -2 -10 -4
-10 -3 0 -8 5 -11 10 -3 6 -1 10 4 10 6 0 11 -4 11 -10z m-2120 -9 c0 -6 -4
-13 -10 -16 -5 -3 -10 1 -10 9 0 9 5 16 10 16 6 0 10 -4 10 -9z m2150 -6 c7
-9 8 -15 2 -15 -5 0 -12 7 -16 15 -3 8 -4 15 -2 15 2 0 9 -7 16 -15z m-2190
-10 c-7 -8 -18 -15 -24 -15 -6 0 -2 7 8 15 25 19 32 19 16 0z m-40 -14 c0 -5
-9 -11 -20 -14 -11 -3 -20 -1 -20 3 0 5 8 11 18 13 9 3 18 5 20 6 1 0 2 -3 2
-8z m503 -6 c9 -4 17 -12 17 -18 0 -5 -8 -3 -17 5 -10 9 -24 13 -30 11 -7 -3
-13 0 -13 5 0 11 14 10 43 -3z m152 -28 c4 5 5 2 1 -5 -6 -9 -13 -8 -31 5 -14
10 -25 22 -25 27 0 5 10 0 23 -12 13 -12 27 -19 32 -15z m743 13 c-7 -11 -15
-15 -17 -9 -2 6 3 15 10 20 20 12 21 11 7 -11z m74 -2 c-7 -7 -12 -8 -12 -2 0
14 12 26 19 19 2 -3 -1 -11 -7 -17z m345 7 c0 -8 -4 -12 -9 -9 -4 3 -8 9 -8
15 0 5 4 9 8 9 5 0 9 -7 9 -15z m81 1 c13 1 22 -4 22 -13 0 -11 -4 -11 -22 -2
-13 7 -25 11 -28 10 -2 -1 -6 3 -8 11 -2 8 0 9 5 3 4 -6 18 -10 31 -9z m356
-1 c3 -8 1 -15 -3 -15 -5 0 -11 7 -15 15 -3 8 -1 15 3 15 5 0 11 -7 15 -15z
m-479 -5 c9 8 14 7 18 -2 3 -10 -7 -13 -37 -12 -22 1 -44 -4 -48 -10 -5 -7 -8
-4 -8 8 0 11 5 16 13 13 8 -3 20 -1 28 4 8 5 15 4 17 -2 3 -6 8 -6 17 1z m75
0 c0 -5 -4 -10 -10 -10 -5 0 -10 5 -10 10 0 6 5 10 10 10 6 0 10 -4 10 -10z
m-1903 -15 c0 -8 -4 -12 -8 -10 -12 8 -39 -7 -32 -18 3 -5 1 -7 -4 -4 -6 4
-37 -18 -68 -49 -32 -30 -59 -53 -62 -51 -8 8 154 146 173 147 0 0 1 -7 1 -15z
m653 -33 c27 -19 100 -92 92 -92 -3 0 6 -12 20 -27 25 -28 71 -113 64 -120 -2
-2 -13 16 -24 40 -24 50 -120 174 -142 182 -8 2 -31 19 -50 36 -32 30 -23 25
40 -19z m1380 27 c0 -4 -4 -11 -10 -14 -5 -3 -10 -11 -10 -16 0 -6 4 -7 10 -4
6 3 7 -1 3 -10 -5 -13 -7 -14 -14 -3 -5 7 -9 9 -9 5 0 -5 -6 -5 -12 0 -22 13
-51 14 -61 1 -6 -9 -7 -8 -3 5 3 9 1 17 -4 17 -6 0 -10 -4 -10 -8 0 -4 -9 -8
-20 -8 -11 0 -20 4 -20 8 0 4 -5 8 -11 8 -5 0 -8 -4 -4 -9 3 -6 -4 -8 -16 -6
-12 2 -35 -2 -53 -9 -17 -7 -37 -11 -43 -9 -7 3 -13 0 -13 -7 0 -6 -4 -8 -10
-5 -5 3 -10 2 -10 -4 0 -6 -11 -13 -25 -17 -15 -4 -22 -11 -18 -18 4 -7 1 -6
-7 1 -8 7 -12 14 -9 16 16 13 92 47 105 47 8 0 12 4 9 10 -3 6 1 7 9 4 10 -4
16 -1 16 7 0 12 2 12 9 0 5 -8 11 -9 15 -3 3 5 26 8 51 6 32 -3 44 -1 39 7 -4
8 -1 8 15 0 11 -7 21 -9 21 -6 0 4 6 3 13 -2 21 -13 49 -14 41 -1 -4 6 -3 8 4
4 6 -3 13 -2 17 4 3 5 -1 10 -9 10 -8 0 -17 4 -20 9 -3 4 6 6 19 3 14 -2 25
-8 25 -13z m-542 -21 c-7 -7 -22 -20 -33 -28 -21 -16 -20 -13 30 46 6 7 11 8
13 3 2 -5 -2 -14 -10 -21z m244 15 c-6 -3 -9 -10 -5 -16 4 -7 -1 -6 -10 2 -9
7 -17 9 -17 3 0 -5 -13 -15 -29 -22 -16 -6 -39 -22 -52 -36 -25 -27 -41 -32
-33 -9 4 8 11 15 18 15 6 0 19 9 29 20 9 11 23 20 31 20 7 0 19 7 26 15 7 8
16 13 20 10 5 -3 12 0 15 6 4 5 10 7 14 3 3 -4 0 -9 -7 -11z m-331 -25 c-11
-18 -28 -47 -36 -65 -8 -17 -19 -34 -24 -37 -5 -4 -2 9 8 26 25 49 62 108 68
108 3 0 -5 -15 -16 -32z m732 -22 c9 -10 17 -15 17 -10 0 5 11 -3 24 -18 12
-15 25 -25 28 -22 3 2 8 -2 12 -11 8 -22 -28 -2 -48 27 -9 12 -16 19 -16 14 0
-5 -6 -3 -13 3 -8 6 -18 7 -22 3 -5 -4 -5 -2 -1 5 6 12 -31 40 -46 35 -5 -1
-8 3 -8 9 0 5 -5 7 -12 3 -7 -4 -8 -3 -4 5 9 13 59 -11 89 -43z m181 46 c3 -5
-1 -9 -9 -9 -8 0 -15 4 -15 9 0 4 4 8 9 8 6 0 12 -4 15 -8z m-1487 -136 c26
-41 56 -106 49 -106 -2 0 -16 26 -31 57 -16 31 -44 75 -64 97 -58 67 -69 85
-22 36 24 -25 55 -63 68 -84z m1556 102 c100 -137 136 -274 114 -443 -3 -22
-6 -40 -7 -40 -1 0 -3 -11 -6 -24 -14 -77 -93 -197 -95 -144 0 10 -1 69 -2
130 -1 62 -4 113 -7 113 -3 0 -5 27 -5 61 0 33 -3 62 -7 65 -4 3 -4 12 -1 20
3 9 0 20 -8 25 -10 6 -10 9 -1 9 6 0 12 5 12 11 0 5 -6 7 -12 3 -10 -6 -10 -5
-1 8 7 8 10 17 7 20 -6 7 -12 54 -13 108 -1 28 -5 36 -21 37 -13 1 -18 -2 -14
-9 4 -7 2 -8 -5 -4 -6 4 -9 12 -6 17 4 5 2 9 -2 9 -5 0 -9 9 -9 19 0 12 7 19
16 18 9 0 17 -7 17 -14 0 -6 -4 -10 -9 -7 -4 3 -8 1 -8 -4 0 -11 26 -23 33
-16 3 3 1 19 -3 35 -12 41 12 39 43 -3z m-2083 -21 c0 -8 -3 -8 -9 2 -5 8 -11
9 -15 3 -3 -5 -19 -8 -36 -7 -16 1 -30 -1 -30 -5 0 -4 -11 -6 -25 -5 -14 2
-25 -1 -25 -6 0 -4 -7 -6 -15 -3 -18 7 -20 -7 -3 -24 14 -14 32 -16 23 -2 -4
6 1 7 11 3 13 -5 15 -3 9 8 -8 12 -6 12 8 0 9 -7 17 -9 17 -4 0 5 9 9 20 9 11
0 20 -7 20 -14 0 -8 -6 -12 -14 -9 -12 5 -41 -2 -118 -29 -10 -4 -15 -10 -12
-15 3 -5 -3 -6 -12 -2 -12 4 -15 3 -10 -5 4 -7 1 -12 -10 -12 -19 0 -56 -39
-48 -51 3 -5 -2 -6 -11 -3 -11 5 -18 0 -22 -15 -3 -12 -13 -21 -24 -21 -15 0
-10 9 22 39 27 25 39 43 34 51 -5 9 -4 11 3 6 13 -7 72 23 72 36 0 4 9 8 20 8
23 0 27 18 5 26 -8 4 -15 10 -15 14 0 10 56 30 64 23 3 -4 6 -2 6 3 0 5 15 9
33 9 17 -1 41 2 52 6 23 8 35 3 35 -14z m1761 9 c5 3 9 0 9 -6 0 -6 5 -8 10
-5 6 3 10 1 10 -4 0 -14 -3 -14 -34 0 -14 7 -22 17 -19 22 5 8 8 7 11 -1 2 -7
8 -10 13 -6z m-1721 -4 c0 -5 -7 -9 -15 -9 -8 0 -15 4 -15 9 0 4 7 8 15 8 8 0
15 -4 15 -8z m40 -4 c0 -4 5 -7 11 -5 6 1 14 -5 16 -13 4 -13 3 -13 -6 0 -7
10 -11 11 -11 3 0 -7 -5 -13 -11 -13 -5 0 -7 5 -4 10 3 6 -1 10 -9 10 -9 0
-16 4 -16 8 0 5 7 9 15 9 8 0 15 -4 15 -9z m71 -18 c10 0 19 -5 19 -12 0 -6 3
-8 7 -5 3 4 15 0 25 -10 10 -9 18 -13 18 -10 0 8 27 -14 75 -60 18 -17 30 -34
27 -37 -3 -3 -12 3 -19 14 -8 11 -19 17 -25 14 -6 -4 -8 -3 -5 3 3 5 -3 17
-14 26 -10 9 -19 14 -19 11 0 -3 -7 2 -16 10 -8 9 -20 14 -25 10 -5 -3 -8 0
-7 7 2 7 -1 14 -7 14 -26 4 -65 26 -64 37 0 10 2 10 6 1 2 -7 13 -13 24 -13z
m988 -7 c-8 -10 -17 -20 -21 -23 -4 -3 -14 -21 -22 -40 -8 -19 -15 -28 -16
-20 0 19 51 100 63 100 5 0 3 -8 -4 -17z m-1172 -15 c-3 -8 -6 -5 -6 6 -1 11
2 17 5 13 3 -3 4 -12 1 -19z m60 9 c0 -8 -6 -14 -14 -14 -17 0 -17 14 0 20 6
3 12 6 13 6 0 1 1 -5 1 -12z m1807 -12 c14 -14 30 -25 36 -25 6 0 8 -4 5 -10
-3 -5 -1 -10 6 -10 7 0 9 -3 5 -7 -3 -4 -23 10 -44 30 -21 21 -42 34 -47 30
-4 -5 -5 -2 -1 5 10 16 11 16 40 -13z m-2044 -5 c-6 -11 -15 -18 -20 -15 -4 3
-14 -1 -22 -8 -7 -7 -21 -16 -31 -20 -10 -4 -16 -11 -12 -16 3 -5 0 -13 -6
-16 -7 -5 -10 0 -7 11 2 11 25 34 52 52 57 38 60 39 46 12z m197 -2 c-3 -8 -6
-5 -6 6 -1 11 2 17 5 13 3 -3 4 -12 1 -19z m77 1 c27 4 56 -1 56 -8 0 -6 -12
-6 -30 -1 -17 5 -34 9 -37 9 -4 0 -9 5 -11 13 -3 11 -2 11 6 0 5 -8 12 -13 16
-13z m1268 -20 c-10 -9 -20 -12 -23 -6 -9 12 -17 -4 -14 -25 2 -10 -2 -16 -8
-15 -7 1 -11 -3 -10 -10 2 -8 -4 -10 -14 -6 -11 4 -13 8 -5 11 7 2 10 8 6 13
-3 5 -1 8 4 7 6 -2 11 2 12 7 3 17 22 35 30 30 5 -3 12 4 15 16 6 17 9 18 16
8 5 -8 2 -19 -9 -30z m-71 -3 c-12 -12 -19 -26 -16 -29 3 -4 2 -5 -1 -2 -10 6
-36 -24 -30 -34 3 -5 -1 -11 -9 -14 -8 -4 -12 -15 -10 -27 2 -13 0 -18 -7 -14
-6 4 -9 1 -6 -7 5 -15 40 -26 37 -12 -2 13 24 73 33 73 15 0 19 -20 4 -26 -8
-3 -18 -19 -21 -36 -6 -27 -10 -29 -36 -24 -24 5 -29 2 -29 -14 0 -22 -15 -27
-26 -8 -4 6 -3 8 4 4 9 -5 17 14 27 64 4 22 47 89 60 94 9 3 13 10 10 16 -3 5
1 10 10 10 10 0 13 5 9 12 -5 7 -3 8 5 3 9 -5 7 -13 -8 -29z m-1116 14 c-3 -5
-1 -11 4 -11 6 -1 16 -2 23 -3 6 0 13 -7 16 -14 3 -10 -2 -10 -25 0 -15 7 -30
13 -32 14 -4 3 9 24 15 24 3 0 2 -4 -1 -10z m1878 4 c3 -4 1 -16 -5 -27 -9
-17 -8 -19 6 -14 8 3 18 2 20 -2 3 -5 -5 -8 -17 -7 -16 1 -21 7 -19 20 2 10
-2 23 -10 27 -10 7 -10 9 3 9 9 0 19 -3 22 -6z m-2500 -36 c-11 -18 -10 -32 2
-40 6 -5 5 -8 -4 -8 -11 0 -11 -3 -1 -15 9 -11 9 -15 1 -15 -7 0 -9 -5 -6 -10
3 -6 -5 -14 -19 -20 -14 -5 -26 -14 -26 -20 0 -6 3 -9 8 -7 4 3 8 -11 8 -30 1
-22 -2 -30 -7 -22 -5 8 -7 1 -7 -19 1 -18 5 -35 10 -38 5 -3 3 -12 -3 -21 -10
-11 -10 -16 0 -23 9 -5 10 -10 2 -14 -6 -4 -11 -12 -11 -17 0 -6 6 -7 13 -3 9
6 9 4 1 -7 -12 -14 -15 -51 -5 -44 3 2 6 -10 6 -25 1 -16 -3 -26 -7 -24 -4 3
-8 0 -8 -5 0 -6 6 -11 13 -11 6 -1 1 -7 -12 -14 -21 -12 -21 -14 -6 -20 10 -3
15 -9 12 -13 -4 -3 -2 -15 4 -26 8 -14 8 -18 0 -13 -6 4 -11 2 -11 -3 0 -6 6
-11 13 -11 8 0 7 -3 -2 -9 -12 -8 -9 -11 11 -16 29 -8 45 -50 21 -59 -8 -3
-11 -1 -8 4 3 6 0 10 -7 10 -9 0 -9 3 2 10 13 9 13 11 0 20 -19 12 -33 13 -25
1 3 -5 0 -13 -6 -17 -8 -4 -9 -3 -5 4 4 7 2 12 -4 12 -6 0 -8 5 -5 10 3 6 2
10 -3 10 -6 0 -13 7 -16 16 -3 8 -2 12 4 9 6 -3 10 -1 10 4 0 6 -6 11 -14 11
-10 0 -13 8 -11 22 3 12 0 27 -6 35 -6 7 -9 20 -5 28 3 8 1 15 -5 15 -6 0 -6
7 1 20 6 11 7 20 2 20 -5 0 -9 14 -10 30 0 20 3 28 10 24 7 -5 8 -2 2 7 -14
22 -11 53 6 67 8 8 10 11 3 8 -7 -4 -11 1 -10 14 1 11 4 20 7 20 3 0 6 11 6
25 1 14 5 33 10 43 4 9 8 21 8 25 2 14 28 25 50 20 20 -4 20 -4 3 10 -15 12
-15 16 -3 26 8 7 13 20 11 29 -2 16 11 42 22 42 2 0 1 -6 -4 -12z m2449 -55
c27 -54 5 -37 -26 20 -19 35 -22 46 -9 32 10 -11 26 -35 35 -52z m-1707 0 c7
-7 16 -9 20 -5 4 4 6 3 5 -3 -5 -22 1 -36 12 -29 6 4 8 3 4 -4 -3 -6 2 -15 11
-21 10 -6 14 -11 9 -11 -9 0 -126 115 -126 125 0 5 37 -25 65 -52z m772 50
c-6 -11 -20 -46 -23 -58 -1 -5 -7 -28 -12 -50 l-10 -40 1 38 c1 21 5 41 9 43
5 3 6 9 3 14 -3 5 -1 11 5 15 5 3 10 15 10 26 0 10 5 19 11 19 5 0 8 -3 6 -7z
m895 -63 c16 -28 23 -50 18 -50 -6 0 -15 12 -21 28 -6 15 -20 37 -31 50 -16
16 -18 22 -7 22 8 0 26 -23 41 -50z m-2259 20 c-6 -22 -43 -48 -43 -31 0 8 39
51 46 51 1 0 0 -9 -3 -20z m2363 -30 c6 -74 8 -85 22 -93 10 -7 10 -12 1 -23
-9 -11 -8 -18 2 -31 13 -16 12 -17 -3 -4 -11 8 -18 9 -18 3 0 -6 8 -16 18 -21
11 -7 12 -10 3 -11 -8 0 -11 -6 -7 -16 4 -10 1 -14 -6 -11 -7 2 -12 14 -12 25
2 26 0 27 -17 5 -8 -9 -9 -14 -4 -11 12 8 14 -36 3 -48 -4 -4 -3 -13 3 -20 8
-9 5 -11 -10 -7 -16 4 -18 9 -10 30 12 31 11 36 -2 27 -8 -4 -8 0 0 15 7 11 8
21 4 21 -4 0 2 7 13 15 14 11 15 14 3 9 -10 -3 -20 0 -24 6 -5 8 -10 8 -20 0
-8 -7 -15 -7 -19 -1 -4 5 -2 12 4 16 6 4 8 11 5 16 -4 5 -2 9 2 9 5 0 14 -9
21 -20 18 -30 32 -24 17 8 -18 39 -27 92 -14 92 6 0 8 -4 4 -9 -8 -14 8 -21
24 -11 8 5 10 13 5 21 -12 20 -12 49 0 49 6 0 4 5 -4 11 -10 7 -11 9 -2 7 8
-2 15 -22 18 -48z m-956 23 c-6 -10 -17 -36 -24 -58 -8 -22 -15 -35 -15 -29
-1 6 5 30 13 52 8 22 12 43 9 46 -4 3 1 6 10 6 14 0 15 -4 7 -17z m-731 -27
c9 -10 8 -15 -2 -19 -8 -3 -13 3 -14 14 -2 23 1 24 16 5z m-719 -29 c-9 -7
-22 -28 -30 -47 -7 -19 -18 -41 -23 -47 -6 -9 -6 -13 2 -13 7 0 9 -4 6 -10
-12 -20 -21 -9 -20 24 0 19 5 34 10 33 6 -1 9 6 7 17 -2 11 1 15 7 11 6 -3 11
2 11 13 0 23 8 32 29 32 14 -1 14 -2 1 -13z m1952 4 c7 -1 5 -21 -4 -37 -8
-11 26 -54 42 -54 5 0 12 5 15 10 9 14 34 -6 31 -23 -9 -48 -49 -106 -61 -88
-2 5 2 12 11 15 8 3 12 11 8 17 -5 8 -3 9 6 4 10 -6 12 -4 7 9 -4 9 -3 15 2
12 5 -3 11 5 13 19 3 14 1 25 -4 25 -20 0 -48 -21 -48 -36 0 -9 5 -12 12 -8 7
5 8 3 3 -5 -5 -9 -10 -10 -18 -2 -9 9 -8 17 1 31 18 29 -12 27 -32 -2 -9 -12
-18 -19 -22 -16 -3 4 3 14 15 24 11 10 17 22 14 27 -3 6 -6 25 -5 42 1 29 -1
32 -23 27 -14 -2 -22 -9 -18 -15 3 -5 1 -7 -4 -4 -6 4 -21 -2 -33 -13 -13 -11
-25 -18 -28 -16 -6 7 24 36 36 36 6 0 12 6 15 13 4 11 36 15 69 8z m-1212 -10
c0 -5 3 -16 6 -25 4 -10 1 -16 -7 -16 -7 0 -9 3 -6 6 3 4 2 15 -4 25 -6 13 -6
19 1 19 5 0 10 -4 10 -9z m-843 -16 c0 -8 -4 -15 -9 -15 -5 0 -5 -8 0 -17 4
-10 7 -24 6 -30 -1 -7 -2 -18 -3 -25 0 -6 -4 -8 -8 -5 -3 4 -13 1 -22 -5 -11
-9 -10 -6 2 9 13 15 17 32 14 62 -3 27 0 41 8 41 6 0 12 -7 12 -15z m1071 -16
c-3 -8 -7 -3 -11 10 -4 17 -3 21 5 13 5 -5 8 -16 6 -23z m-947 -13 c-11 -19
-17 -37 -14 -40 4 -3 1 -6 -4 -6 -6 0 -10 -8 -8 -17 1 -10 -2 -24 -8 -30 -6
-9 -5 -13 4 -13 12 0 12 -2 0 -9 -7 -5 -11 -13 -8 -18 9 -14 -9 -37 -22 -29
-6 4 -8 13 -4 19 4 7 8 21 9 32 1 11 6 33 12 48 7 15 11 33 9 40 -1 7 4 11 11
9 8 -1 12 3 10 10 -5 13 11 37 24 38 4 0 -1 -15 -11 -34z m895 16 c1 -7 2 -13
3 -14 6 -7 11 -51 5 -46 -3 3 -7 14 -9 25 -2 10 -4 19 -4 21 -1 1 -1 5 0 8 0
4 -5 11 -13 16 -10 8 -10 9 2 5 8 -2 16 -9 16 -15z m1424 -8 c0 -8 -5 -14 -12
-14 -6 0 -8 3 -5 7 4 3 2 12 -5 20 -8 11 -7 12 6 7 9 -3 16 -12 16 -20z
m-1617 -27 c20 -50 21 -57 5 -57 -6 0 -9 3 -5 6 8 8 -20 76 -36 86 -9 6 -8 8
3 8 8 0 23 -19 33 -43z m557 33 c0 -3 -35 -6 -77 -6 -93 -1 -131 -8 -190 -36
-17 -8 -25 -7 -38 6 -9 9 -13 16 -8 16 5 0 14 -5 21 -12 8 -8 15 -8 24 -1 12
10 49 22 92 30 11 2 21 4 22 6 5 5 154 2 154 -3z m35 -10 c3 -6 -1 -7 -9 -4
-18 7 -21 14 -7 14 6 0 13 -4 16 -10z m44 -11 c-15 -9 -32 -2 -24 11 3 5 13 6
21 3 12 -4 13 -8 3 -14z m223 -11 c-2 -15 -7 -28 -11 -28 -3 0 -6 13 -6 28 -1
16 4 29 10 29 6 0 9 -12 7 -29z m-814 10 c1 -7 5 -29 8 -48 4 -20 3 -31 -2
-27 -5 5 -10 17 -10 28 -3 37 -4 40 -16 33 -9 -5 -9 -2 1 9 16 20 17 21 19 5z
m-366 -35 c-3 -17 1 -29 11 -35 9 -5 21 -17 27 -27 8 -16 7 -18 -11 -14 -12 4
-18 11 -15 20 5 11 0 13 -17 8 -17 -5 -19 -4 -7 4 8 6 10 11 4 11 -5 0 -10 15
-11 34 -1 24 3 33 12 30 7 -3 10 -15 7 -31z m1515 22 c0 -8 -4 -15 -9 -15 -10
0 -11 14 -1 23 9 10 10 9 10 -8z m-1547 -6 c0 -5 -4 -8 -9 -4 -5 3 -16 -1 -24
-9 -8 -8 -17 -12 -21 -9 -7 7 24 32 42 33 6 0 12 -5 12 -11z m1045 -49 c0 -33
-3 -60 -6 -60 -4 0 -6 27 -7 60 0 33 3 60 7 60 4 0 7 -27 6 -60z m120 43 c-10
-27 -13 -93 -3 -93 5 0 4 -9 -2 -19 -8 -16 -6 -22 7 -30 10 -6 13 -11 6 -11
-8 0 -3 -21 14 -62 15 -35 30 -65 34 -68 3 -3 11 -15 18 -28 7 -13 17 -20 24
-16 7 4 9 3 4 -1 -9 -10 43 -66 55 -59 4 3 8 -1 8 -9 0 -13 21 -29 42 -31 4
-1 16 -8 26 -16 10 -8 25 -17 33 -18 8 -2 23 -6 34 -9 11 -2 26 -5 33 -5 6 -1
12 -5 12 -10 0 -4 4 -8 10 -8 5 0 6 8 3 18 -6 16 -6 16 10 1 16 -17 54 -18
134 -4 18 3 36 5 39 5 4 -1 11 4 15 12 6 9 9 9 9 1 0 -24 -30 -31 -145 -37
-38 -2 -81 1 -95 7 -14 6 -33 9 -42 8 -10 -1 -18 3 -18 9 0 6 -4 9 -9 5 -5 -3
-16 1 -24 9 -11 11 -17 12 -26 3 -10 -9 -12 -9 -9 3 2 8 -3 14 -10 12 -7 -1
-15 5 -18 13 -3 8 -10 12 -15 9 -5 -3 -8 -2 -7 3 5 13 -37 50 -53 45 -11 -3
-11 -2 1 7 15 10 14 12 -12 15 -7 1 -12 7 -10 14 1 7 -5 15 -13 18 -8 3 -13
10 -10 14 2 4 -6 19 -20 34 -13 14 -19 26 -12 26 8 0 8 3 -1 9 -8 4 -13 10
-12 12 1 2 -4 18 -11 34 -6 17 -12 48 -13 70 -1 22 -5 45 -9 52 -4 6 -3 14 2
17 5 3 8 19 7 36 -1 20 2 30 12 30 9 0 12 -6 7 -17z m303 -10 c0 -12 -4 -23
-8 -23 -4 0 -10 11 -12 23 -3 14 0 24 7 24 7 0 13 -11 13 -24z m47 19 c-3 -3
0 -11 7 -19 6 -7 8 -16 4 -20 -3 -3 -6 -1 -6 6 0 7 -5 9 -12 5 -7 -4 -8 -3 -4
4 4 7 2 12 -3 12 -6 0 -11 4 -11 8 0 5 7 9 15 9 8 0 13 -3 10 -5z m-607 -17
c3 -3 0 -11 -8 -18 -8 -7 -10 -8 -7 -1 7 12 -27 26 -38 16 -10 -11 -45 -9 -45
2 0 12 87 12 98 1z m-164 -9 c-3 -8 -12 -12 -19 -10 -7 3 -16 0 -20 -5 -3 -6
-11 -9 -16 -6 -5 4 -12 0 -15 -9 -3 -8 -12 -12 -20 -9 -8 3 -14 0 -14 -6 0 -6
-4 -11 -10 -11 -5 0 -7 7 -4 15 4 8 14 15 23 15 10 0 21 3 25 8 6 5 34 18 73
31 1 1 0 -5 -3 -13z m56 2 c0 -6 -3 -8 -6 -5 -4 3 -15 2 -25 -4 -14 -7 -17 -6
-14 4 7 16 45 20 45 5z m174 -19 c13 -12 19 -89 7 -89 -5 0 -12 7 -15 16 -3 8
-2 12 4 9 5 -3 8 7 7 22 -1 19 -11 34 -32 46 -27 16 -28 17 -5 11 14 -3 29
-10 34 -15z m227 3 c-7 -2 -18 1 -23 6 -8 8 -4 9 13 5 13 -4 18 -8 10 -11z
m-1261 2 c0 -3 -6 -12 -14 -20 -22 -21 -7 -111 16 -98 7 4 10 4 6 0 -10 -11
14 -34 29 -29 7 3 13 -1 13 -8 0 -11 2 -11 9 -1 4 7 21 14 37 16 16 1 28 8 26
14 -3 17 3 15 19 -5 10 -12 10 -14 1 -9 -7 4 -14 1 -18 -7 -3 -8 -15 -13 -27
-13 -12 1 -27 -2 -34 -6 -6 -5 -14 -5 -18 2 -3 6 -10 8 -14 6 -4 -3 -20 7 -35
23 -30 31 -41 93 -23 123 11 17 27 25 27 12z m37 -16 c-3 -8 -6 -5 -6 6 -1 11
2 17 5 13 3 -3 4 -12 1 -19z m591 0 c1 -13 3 -40 5 -60 3 -21 1 -38 -3 -38 -4
0 -8 12 -8 28 0 15 -3 42 -5 60 -3 17 -1 32 3 32 4 0 8 -10 8 -22z m-1042 -30
c-1 -28 2 -33 20 -30 18 2 21 -2 19 -30 -1 -18 3 -39 9 -47 9 -12 7 -12 -13
-2 -14 8 -19 16 -13 20 12 7 -18 49 -33 44 -6 -2 -10 15 -10 37 0 23 5 40 11
40 7 0 11 -14 10 -32z m1687 26 c-7 -3 -10 -11 -7 -18 3 -7 -2 -18 -10 -25
-12 -10 -14 -9 -9 9 4 13 0 26 -8 31 -10 6 -5 9 16 8 17 0 25 -3 18 -5z m283
-29 c19 -20 39 -33 44 -30 4 3 11 -2 14 -10 5 -14 2 -14 -23 -1 -16 9 -32 12
-36 8 -5 -4 -5 -2 -1 5 3 6 1 15 -6 20 -17 11 -42 43 -34 43 4 0 23 -16 42
-35z m28 23 c-5 -8 -1 -9 12 -4 14 5 16 4 7 -5 -13 -13 -37 -3 -28 12 4 5 8 9
11 9 3 0 2 -5 -2 -12z m49 -5 c-5 -12 -3 -14 7 -8 9 6 11 4 5 -4 -5 -9 -11 -9
-17 -3 -6 6 -7 15 -4 21 11 17 16 13 9 -6z m413 0 c-4 -24 -22 -27 -22 -3 0
11 6 20 12 20 7 0 11 -8 10 -17z m-2416 -15 c0 -10 -5 -18 -12 -18 -6 0 -8 3
-5 7 4 3 2 11 -3 18 -7 8 -5 12 5 12 8 0 15 -9 15 -19z m540 12 c12 -7 10 -9
-8 -7 -12 0 -22 5 -22 9 0 11 12 10 30 -2z m-140 -10 c0 -5 -4 -10 -10 -10 -5
0 -10 5 -10 10 0 6 5 10 10 10 6 0 10 -4 10 -10z m456 -2 c5 -8 1 -9 -11 -5
-9 4 -24 2 -32 -4 -7 -7 -16 -9 -20 -5 -3 3 0 6 8 6 11 0 11 2 1 9 -9 5 -3 8
17 9 17 0 34 -4 37 -10z m-398 -23 c-3 -3 -9 2 -12 12 -6 14 -5 15 5 6 7 -7
10 -15 7 -18z m-18 -5 c7 -14 7 -20 0 -20 -5 0 -10 7 -10 16 0 14 -3 14 -15 4
-9 -8 -15 -8 -15 -2 0 9 6 14 27 21 1 1 7 -8 13 -19z m110 10 c8 -5 10 -10 4
-10 -7 0 -15 -12 -19 -27 -4 -16 -9 -23 -12 -16 -2 7 0 21 6 32 8 14 8 21 -2
24 -6 3 -7 6 -2 6 6 0 17 -4 25 -9z m508 -50 c-2 -78 -13 -78 -13 0 0 33 3 60
7 60 4 0 6 -27 6 -60z m-202 11 c0 -18 -3 -34 -7 -36 -3 -3 -5 10 -4 28 2 17
-2 36 -8 40 -8 6 -7 7 3 4 9 -2 15 -16 16 -36z m786 4 c-2 -19 0 -35 5 -35 5
0 10 -7 11 -15 1 -8 3 -22 4 -30 1 -8 5 -15 10 -15 5 0 7 -4 4 -9 -4 -5 -1
-11 4 -13 6 -2 13 -12 14 -23 2 -11 10 -18 17 -17 8 2 11 1 7 -3 -4 -4 3 -17
15 -29 12 -11 28 -29 36 -39 12 -15 12 -17 -3 -11 -9 3 -16 10 -16 16 0 5 -6
6 -12 2 -7 -4 -10 -4 -6 0 4 5 -5 19 -18 31 -14 13 -27 32 -28 42 -2 10 -9 18
-17 18 -8 0 -13 8 -11 18 2 9 -3 17 -10 17 -9 0 -9 3 2 10 10 6 11 10 3 10 -7
0 -13 8 -13 18 0 10 -5 23 -12 30 -7 7 -8 12 -4 12 5 0 2 8 -5 17 -8 9 -9 14
-3 10 7 -4 14 0 18 8 9 25 12 17 8 -20z m375 8 c-3 -3 -11 -2 -17 2 -9 6 -9
10 1 16 14 8 27 -7 16 -18z m387 -11 c-6 -34 -20 -49 -20 -22 0 11 4 20 8 20
4 0 5 9 3 20 -2 11 0 18 5 15 5 -3 6 -18 4 -33z m-2014 13 c0 -2 -6 -5 -13 -8
-8 -3 -14 1 -14 8 0 7 6 11 14 8 7 -3 13 -6 13 -8z m100 1 c0 -8 -4 -18 -10
-21 -6 -4 -7 1 -3 11 5 13 3 15 -7 9 -9 -5 -11 -4 -6 3 10 17 26 15 26 -2z
m330 4 c0 -5 -4 -10 -9 -10 -6 0 -13 5 -16 10 -3 6 1 10 9 10 9 0 16 -4 16
-10z m1675 1 c3 -5 1 -13 -5 -16 -7 -4 -7 -11 -2 -18 5 -7 7 -21 5 -32 -2 -11
-4 -27 -3 -35 0 -8 1 -30 1 -48 0 -21 4 -30 11 -26 7 5 8 2 2 -7 -4 -8 -9 -42
-9 -77 -1 -56 -4 -65 -35 -97 -18 -19 -36 -33 -38 -30 -3 3 7 14 21 25 37 30
49 69 35 123 -3 15 -3 27 2 27 4 0 5 15 1 33 -3 17 -6 48 -6 67 1 19 -4 38 -9
42 -8 5 -7 8 0 8 7 0 11 14 8 35 -3 33 8 46 21 26z m-1018 -13 c1 -12 4 -28
17 -83 2 -11 8 -29 12 -40 5 -14 4 -17 -4 -10 -6 6 -14 24 -17 40 -3 17 -8 41
-11 54 -6 29 -7 34 -5 44 2 12 8 8 8 -5z m-1057 -8 c0 -5 -4 -10 -10 -10 -5 0
-10 5 -10 10 0 6 5 10 10 10 6 0 10 -4 10 -10z m-469 -12 c1 -7 1 -28 0 -46
-1 -22 2 -31 9 -27 6 3 8 10 6 14 -3 4 1 8 9 8 8 0 11 -5 8 -10 -4 -6 0 -8 10
-4 9 3 19 1 23 -5 4 -7 3 -8 -4 -4 -19 12 -14 -15 6 -30 16 -13 16 -14 -3 -8
-16 6 -18 5 -7 -7 14 -15 16 -29 3 -29 -9 0 -24 38 -22 57 2 18 -15 24 -27 10
-10 -12 -12 -17 -12 -38 0 -5 -5 -7 -11 -3 -8 4 -7 9 2 15 9 6 10 9 2 9 -8 0
-10 12 -6 35 4 28 1 39 -13 50 -19 15 -19 15 0 8 13 -4 17 -3 12 5 -4 7 -2 12
3 12 6 0 12 -6 12 -12z m504 2 c-3 -5 -12 -10 -18 -10 -7 0 -6 4 3 10 19 12
23 12 15 0z m371 -2 c4 -7 3 -8 -4 -4 -7 4 -12 2 -12 -3 0 -6 -4 -11 -10 -11
-5 0 -7 7 -4 15 7 18 20 19 30 3z m599 -9 c2 -9 -3 -16 -11 -16 -10 0 -11 4
-3 13 7 8 6 14 -1 17 -6 3 -6 5 1 3 7 -1 13 -9 14 -17z m-1382 -5 c-2 -7 -11
-10 -19 -7 -17 6 -11 20 10 20 8 0 12 -6 9 -13z m2403 -6 c4 -7 3 -8 -4 -4 -7
4 -13 1 -13 -8 -1 -9 -3 -20 -4 -26 -1 -5 -3 -17 -4 -25 0 -8 -9 -15 -18 -14
-11 0 -13 3 -5 6 6 2 10 9 6 14 -3 5 0 9 6 9 6 0 9 3 7 8 -5 8 10 52 17 52 3
0 8 -5 12 -12z m-1439 -13 c0 -8 -4 -12 -9 -9 -4 3 -8 9 -8 15 0 5 4 9 8 9 5
0 9 -7 9 -15z m-190 -10 c0 -8 -4 -15 -9 -15 -4 0 -8 7 -8 15 0 8 4 15 8 15 5
0 9 -7 9 -15z m-775 -17 c-4 -16 -2 -19 9 -13 12 7 12 6 1 -7 -9 -11 -9 -18
-2 -21 7 -4 7 -5 -1 -3 -6 1 -9 4 -8 6 1 3 -3 15 -9 26 -11 20 -7 34 9 34 4 0
5 -10 1 -22z m53 4 c-3 -3 -11 0 -18 7 -9 10 -8 11 6 5 10 -3 15 -9 12 -12z
m762 3 c0 -8 -4 -15 -9 -15 -4 0 -7 -3 -6 -7 5 -15 -26 -113 -35 -113 -6 0 -7
-3 -4 -6 3 -4 -8 -26 -25 -50 -17 -24 -34 -42 -36 -39 -3 2 0 11 6 18 7 8 8
17 4 21 -4 4 0 6 8 4 8 -1 14 3 13 10 -2 6 2 12 8 12 5 0 8 4 5 9 -3 5 1 14
10 21 8 7 13 19 10 26 -3 7 -1 14 5 16 10 3 20 39 23 81 1 28 23 39 23 12z
m579 -12 c4 -16 11 -34 17 -40 6 -9 6 -13 -1 -13 -9 0 -24 29 -27 50 0 3 -4
11 -8 18 -5 7 -4 12 2 12 6 0 14 -12 17 -27z m954 17 c0 -5 -4 -10 -10 -10 -5
0 -10 5 -10 10 0 6 5 10 10 10 6 0 10 -4 10 -10z m-1389 -23 c-6 -8 -8 -17 -4
-20 3 -4 1 -7 -5 -7 -14 0 -14 2 -6 24 3 9 11 16 16 16 7 0 6 -5 -1 -13z m145
-6 c3 -9 8 -26 9 -39 4 -27 32 -73 52 -85 7 -4 13 -13 13 -20 0 -7 -13 2 -29
19 -28 30 -43 61 -46 97 -1 9 -10 23 -20 31 -15 11 -15 13 -2 13 9 0 19 -7 23
-16z m227 -3 c-6 -7 -13 -30 -16 -52 -11 -73 -61 -117 -109 -95 l-23 10 24 -5
c53 -11 88 22 97 90 5 39 22 79 31 70 3 -3 1 -11 -4 -18z m-565 -5 c-2 -10 -6
-20 -10 -23 -3 -3 -8 -14 -10 -25 -1 -11 -9 -26 -15 -33 -7 -7 -13 -20 -13
-28 0 -8 -4 -13 -9 -10 -5 3 2 27 16 53 13 26 21 53 19 60 -4 10 3 17 22 22 2
1 2 -7 0 -16z m246 2 c-4 -8 -8 -15 -10 -15 -2 0 -4 7 -4 15 0 8 4 15 10 15 5
0 7 -7 4 -15z m356 0 c7 -9 8 -15 2 -15 -5 0 -12 7 -16 15 -3 8 -4 15 -2 15 2
0 9 -7 16 -15z m951 -19 c-11 -19 -17 -37 -13 -41 3 -3 -2 -3 -12 1 -17 7 -17
8 -2 19 9 7 16 19 16 28 0 13 7 19 27 26 2 1 -6 -14 -16 -33z m-1257 9 c-4 -8
-8 -15 -10 -15 -2 0 -4 7 -4 15 0 8 4 15 10 15 5 0 7 -7 4 -15z m-114 -35 c-6
-11 -12 -20 -14 -20 -2 0 -2 9 1 20 3 11 9 20 15 20 5 0 4 -9 -2 -20z m56 -5
c1 -8 -2 -15 -7 -15 -4 0 -6 -7 -3 -15 4 -8 1 -15 -4 -15 -6 0 -8 10 -6 23 3
12 6 28 6 35 2 15 11 6 14 -13z m367 5 c-3 -11 -7 -20 -9 -20 -2 0 -4 9 -4 20
0 11 4 20 9 20 5 0 7 -9 4 -20z m993 8 c5 -7 3 -8 -6 -3 -10 6 -12 4 -7 -9 4
-9 3 -14 -2 -11 -5 3 -12 -4 -16 -15 -7 -22 -20 -26 -31 -8 -4 7 -3 8 4 4 6
-4 18 6 27 24 17 33 21 35 31 18z m-2486 -8 c0 -5 -2 -10 -4 -10 -3 0 -8 5
-11 10 -3 6 -1 10 4 10 6 0 11 -4 11 -10z m150 -12 c8 -13 15 -30 16 -38 2 -8
8 -16 14 -18 5 -2 8 -8 4 -13 -3 -5 0 -9 5 -9 6 0 11 -7 11 -16 0 -8 5 -12 10
-9 6 4 9 1 8 -7 -2 -7 5 -12 14 -12 10 1 17 -1 15 -5 -2 -3 12 -20 30 -38 18
-17 33 -26 34 -20 0 8 2 8 6 -1 2 -6 9 -10 14 -6 5 3 9 0 9 -6 0 -6 4 -9 9 -6
5 4 11 2 13 -4 2 -6 18 -11 36 -13 17 -1 32 -6 32 -10 0 -5 4 -6 8 -3 5 3 9
-1 9 -9 0 -11 -4 -12 -13 -4 -7 6 -18 8 -24 4 -5 -3 -10 -1 -10 6 0 7 -3 10
-6 6 -4 -3 -19 0 -34 8 -15 8 -30 11 -34 8 -3 -4 -6 -1 -6 6 0 7 -4 10 -8 7
-11 -7 -37 11 -37 26 0 7 -6 14 -12 14 -43 5 -47 6 -35 11 9 3 3 12 -17 27
-17 13 -28 25 -26 28 3 3 -1 11 -10 18 -8 7 -15 19 -15 27 0 9 -5 11 -12 7
-10 -6 -10 -5 -1 7 10 12 8 17 -8 27 -10 7 -19 17 -19 22 0 17 15 11 30 -12z
m1040 -4 c0 -8 -4 -14 -8 -14 -4 0 -8 9 -8 19 0 11 4 17 8 15 4 -3 8 -12 8
-20z m424 -126 c6 -4 7 -8 1 -8 -5 0 -3 -5 5 -10 9 -6 10 -10 3 -10 -13 0 -93
139 -93 161 0 7 16 -18 36 -56 20 -39 41 -73 48 -77z m-1570 124 c-17 -11 -22
-35 -12 -54 6 -13 5 -18 -5 -18 -10 0 -14 12 -13 40 1 33 4 40 21 40 12 0 16
-3 9 -8z m1591 -54 c20 -35 64 -89 98 -120 33 -32 56 -58 51 -58 -18 0 -139
137 -167 188 -39 72 -28 65 18 -10z m754 25 c-13 -15 -29 -33 -35 -40 -7 -6
-14 -10 -17 -7 -3 3 -10 -4 -17 -15 -6 -12 -15 -19 -20 -16 -5 3 -13 -3 -19
-12 -5 -10 -12 -17 -15 -15 -14 5 -37 1 -32 -6 3 -5 -1 -9 -9 -9 -26 0 -16 13
25 31 22 9 43 18 47 19 3 1 29 23 57 50 55 52 73 62 35 20z m-2274 7 c-3 -5
-10 -10 -16 -10 -5 0 -9 5 -9 10 0 6 7 10 16 10 8 0 12 -4 9 -10z m918 -64
c-15 -36 -31 -66 -35 -66 -3 0 8 31 25 69 40 88 48 85 10 -3z m447 54 c-6 -4
-11 -9 -10 -11 5 -11 -25 -56 -48 -74 -66 -49 -204 -1 -225 78 -7 25 2 21 13
-7 23 -61 131 -100 192 -70 23 12 77 74 70 82 -7 8 0 22 9 16 8 -5 8 -9 -1
-14z m-1340 -50 c13 -25 25 -38 32 -34 7 5 8 2 3 -6 -6 -10 -4 -12 9 -7 11 4
15 3 10 -4 -7 -12 51 -71 60 -61 3 3 6 -3 6 -13 0 -17 -2 -17 -23 3 -13 12
-27 20 -30 17 -4 -3 -5 -2 -3 1 3 3 -10 20 -27 38 -18 17 -38 44 -45 59 -6 16
-16 26 -20 23 -5 -3 -9 1 -9 9 0 27 16 16 37 -25z m957 18 c-3 -8 -6 -5 -6 6
-1 11 2 17 5 13 3 -3 4 -12 1 -19z m1315 -6 c-12 -12 -32 -28 -46 -37 -14 -10
-23 -22 -19 -29 3 -6 3 -8 -1 -4 -5 4 -26 -4 -47 -18 -21 -13 -39 -20 -39 -14
0 5 5 10 11 10 5 0 8 4 5 9 -3 5 2 8 12 7 9 0 16 4 15 11 -2 7 3 10 10 8 6 -3
34 15 61 40 27 25 51 44 53 41 3 -2 -4 -13 -15 -24z m-1606 -27 c-9 -14 -21
-25 -27 -25 -6 0 -7 -6 -3 -12 4 -7 4 -10 0 -6 -10 8 -44 -24 -38 -36 3 -5 0
-6 -6 -2 -5 3 -13 0 -15 -6 -3 -8 -6 -6 -6 5 -1 9 3 17 7 17 13 0 78 63 85 84
4 10 10 16 14 13 3 -4 -2 -18 -11 -32z m1081 18 c-10 -10 31 -35 45 -27 7 4 8
3 4 -5 -7 -11 40 -27 77 -25 9 1 17 -3 17 -8 0 -11 -72 -7 -81 5 -3 4 -15 9
-27 10 -11 0 -18 5 -16 9 3 4 -2 8 -10 8 -9 0 -16 5 -16 11 0 8 -6 7 -17 -2
-15 -11 -14 -10 1 9 11 12 21 22 24 22 3 0 2 -3 -1 -7z m-797 -18 c0 -8 -4
-15 -10 -15 -5 0 -7 7 -4 15 4 8 8 15 10 15 2 0 4 -7 4 -15z m-20 -40 c0 -8
-4 -15 -10 -15 -5 0 -7 7 -4 15 4 8 8 15 10 15 2 0 4 -7 4 -15z m1125 -14 c-8
-14 -45 -14 -45 -1 0 5 6 7 14 4 8 -3 17 0 21 6 4 6 9 9 12 6 3 -2 2 -9 -2
-15z m-1388 -5 c0 -8 -3 -14 -6 -13 -4 1 -18 -9 -31 -21 -25 -24 -90 -61 -101
-58 -4 0 -17 -8 -28 -18 -21 -19 -22 -19 -15 -1 7 18 6 18 -16 2 -14 -9 -29
-17 -35 -17 -5 0 4 8 20 18 17 10 40 18 53 16 12 -1 22 2 22 7 0 5 7 9 15 9 8
0 15 5 15 11 0 5 4 8 9 4 6 -3 29 13 52 35 23 22 43 40 44 40 1 0 2 -6 2 -14z
m1273 -1 c0 -6 3 -7 8 0 10 14 52 14 52 0 0 -13 -92 -13 -97 1 -2 5 6 10 17
10 11 0 20 -5 20 -11z m-2045 -23 c1 -12 12 -33 25 -47 13 -14 19 -25 14 -25
-12 1 -41 41 -54 75 -8 20 -7 26 2 23 6 -2 12 -14 13 -26z m938 -12 c-37 -46
-103 -115 -103 -108 0 3 15 22 33 40 18 19 43 49 56 67 13 18 25 30 28 28 2
-3 -4 -15 -14 -27z m30 -43 c-26 -36 -49 -64 -51 -62 -4 4 92 133 96 130 2 -2
-18 -33 -45 -68z m750 -32 c17 -13 54 -35 95 -56 18 -10 39 -23 47 -29 12 -10
15 -10 15 1 0 10 3 10 8 3 4 -6 23 -15 42 -19 19 -4 40 -10 45 -13 25 -15 129
-22 168 -11 16 5 25 4 22 -2 -4 -5 -13 -9 -21 -9 -8 0 -12 -4 -9 -10 4 -6 -1
-7 -12 -3 -10 3 -15 3 -11 -2 4 -4 3 -14 -3 -21 -6 -8 -9 -21 -5 -29 3 -10 2
-13 -5 -10 -5 4 -8 19 -5 35 5 33 -6 38 -76 35 -26 -1 -45 2 -42 6 5 9 -51 28
-93 31 -17 1 -31 7 -30 13 1 5 -8 9 -20 9 -13 -1 -20 3 -17 7 3 5 -2 9 -10 9
-9 0 -16 5 -16 11 0 5 -4 8 -9 5 -5 -3 -11 1 -15 9 -3 8 -11 15 -18 15 -8 0
-27 13 -44 28 -17 15 -37 26 -45 24 -11 -3 -11 -1 1 7 12 8 11 11 -5 17 -25
10 -45 29 -45 44 0 6 22 -10 50 -37 27 -26 56 -52 63 -58z m-1053 84 c0 -12
-69 -44 -89 -40 -8 1 -10 -2 -5 -10 4 -8 3 -10 -4 -5 -7 4 -12 1 -12 -6 0 -9
-3 -9 -10 2 -9 13 -10 13 -10 0 0 -12 -2 -12 -9 -1 -6 9 -11 10 -15 2 -10 -15
-26 -14 -26 2 0 8 12 12 33 12 17 -1 43 6 57 14 13 9 25 15 27 13 7 -6 53 11
53 19 0 5 2 9 5 9 3 0 5 -5 5 -11z m-387 -45 c9 -4 17 -11 17 -16 0 -6 8 -4
17 3 9 8 14 9 10 3 -3 -6 5 -16 18 -22 19 -9 25 -9 25 1 0 9 2 9 8 0 10 -16
128 -23 142 -9 7 7 10 5 10 -6 0 -13 -9 -15 -40 -13 -25 2 -38 0 -34 -7 4 -7
0 -7 -12 0 -11 5 -29 8 -41 7 -13 -1 -23 1 -23 5 0 4 -11 6 -24 5 -15 -2 -27
3 -30 12 -5 13 -9 13 -22 2 -12 -10 -15 -10 -12 2 2 8 -3 13 -9 12 -7 -2 -13
2 -13 8 0 6 -9 9 -19 6 -14 -3 -18 -1 -14 10 3 7 11 11 17 8 6 -3 19 -8 29
-11z m2157 -4 c-38 -30 -110 -70 -110 -61 0 5 13 14 29 21 16 6 44 23 62 36
39 29 54 32 19 4z m-1965 -11 c-8 -12 -45 -7 -45 7 0 7 10 9 25 6 14 -2 22 -8
20 -13z m2067 -12 c-7 -22 -7 -22 -10 1 -3 23 -4 23 -23 6 -10 -9 -19 -14 -19
-9 0 13 33 33 46 28 7 -2 9 -13 6 -26z m-752 8 c11 -13 10 -14 -4 -9 -9 3 -16
10 -16 15 0 13 6 11 20 -6z m-1695 -45 c15 -16 31 -27 35 -25 4 3 14 -2 21
-11 7 -9 34 -27 61 -40 26 -13 48 -27 48 -29 0 -8 -104 47 -112 59 -4 6 -11
11 -16 11 -5 0 -26 15 -47 33 -21 17 -34 32 -28 32 5 0 22 -13 38 -30z m1777
3 c25 -12 59 -24 75 -27 15 -2 48 -8 73 -13 25 -5 58 -8 75 -6 19 1 25 -1 17
-6 -27 -16 -166 8 -241 42 -25 11 -49 20 -53 19 -5 -1 -8 3 -8 9 0 6 3 9 8 7
4 -2 28 -13 54 -25z m598 12 c-7 -8 -18 -15 -24 -15 -6 0 -2 7 8 15 25 19 32
19 16 0z m75 -14 c3 -5 1 -12 -5 -16 -5 -3 -10 1 -10 9 0 18 6 21 15 7z
m-2537 -15 c-7 -8 -15 -12 -17 -11 -5 6 10 25 20 25 5 0 4 -6 -3 -14z m884
-20 c-10 -14 -22 -23 -25 -20 -5 5 35 52 42 48 2 -2 -6 -14 -17 -28z m1428 29
c0 -5 -24 -16 -67 -29 -15 -5 -23 -3 -23 5 0 7 3 10 6 6 3 -3 22 1 42 8 21 8
38 14 40 14 1 1 2 -1 2 -4z m108 -7 c-3 -7 -9 -13 -14 -13 -5 -1 -20 -6 -34
-14 l-25 -12 25 20 c13 10 28 17 32 15 4 -3 8 0 8 5 0 6 3 11 6 11 3 0 4 -6 2
-12z m-2392 -6 c-2 -4 12 -19 32 -32 20 -14 43 -31 50 -37 7 -7 18 -13 23 -13
5 0 9 -5 9 -10 0 -10 -43 13 -69 38 -11 10 -16 10 -30 0 -14 -12 -15 -11 -2 4
11 15 10 19 -13 29 -19 9 -23 15 -14 21 16 10 20 10 14 0z m793 -6 c-18 -15
-133 -76 -136 -72 -3 3 17 16 44 30 26 13 57 31 68 39 11 9 22 13 24 11 2 -2
2 -6 0 -8z m1376 -16 c-26 -11 -55 -12 -55 -2 0 4 17 8 38 9 28 1 32 -1 17 -7z
m335 -15 c0 -14 -2 -25 -4 -25 -2 0 -6 11 -8 25 -3 14 -1 25 3 25 5 0 9 -11 9
-25z m-2534 -20 c-1 -19 -4 -35 -7 -35 -9 0 -17 42 -11 58 8 24 18 11 18 -23z
m2344 14 c0 -5 -5 -7 -10 -4 -7 4 -9 -3 -6 -19 3 -15 1 -24 -5 -21 -5 4 -9 1
-9 -6 0 -7 -3 -9 -6 -6 -4 4 -1 14 7 23 13 16 11 17 -14 12 -30 -6 -29 -2 5
18 29 16 38 17 38 3z m-1524 -24 c-20 -14 -40 -25 -43 -25 -4 0 8 11 27 25 19
14 38 25 43 25 6 0 -7 -11 -27 -25z m1419 -5 c3 5 12 10 18 10 7 0 4 -5 -5
-10 -11 -7 -15 -18 -12 -33 11 -45 12 -67 4 -72 -5 -3 -7 6 -4 19 3 17 -4 34
-21 53 -24 26 -26 26 -20 6 4 -14 2 -23 -4 -23 -6 0 -10 6 -8 13 1 6 -5 11
-13 9 -8 -1 -4 6 10 17 17 13 28 16 36 10 8 -7 14 -6 19 1z m118 -10 c3 -11 1
-20 -4 -20 -5 0 -9 9 -9 20 0 11 2 20 4 20 2 0 6 -9 9 -20z m-2086 -12 c-3 -8
-6 -5 -6 6 -1 11 2 17 5 13 3 -3 4 -12 1 -19z m395 10 c-7 -7 -17 -14 -22 -14
-6 -1 -11 -2 -12 -4 -10 -7 -37 -6 -32 1 3 5 9 7 14 4 5 -3 11 -1 15 5 4 6 10
8 15 5 5 -3 11 -1 15 5 3 5 9 10 13 10 3 0 0 -6 -6 -12z m1862 -25 c-2 -21 -6
-105 -10 -188 -4 -82 -9 -152 -12 -155 -6 -7 8 327 17 373 4 21 7 2 5 -30z
m-2227 12 c0 -8 -4 -12 -9 -9 -5 3 -6 10 -3 15 9 13 12 11 12 -6z m-239 -20
c-3 -3 -9 2 -12 12 -6 14 -5 15 5 6 7 -7 10 -15 7 -18z m132 0 c0 4 9 0 20
-10 11 -10 20 -15 20 -10 0 4 6 3 13 -2 6 -6 20 -9 29 -8 19 3 45 -21 34 -32
-3 -3 -6 -1 -6 6 0 7 -4 10 -9 6 -5 -3 -12 -1 -16 5 -4 6 -11 8 -16 4 -6 -3 1
-16 15 -29 24 -22 25 -25 10 -54 -15 -30 -37 -40 -48 -22 -4 5 3 7 14 4 15 -4
20 0 20 16 0 11 5 21 12 21 6 0 3 9 -7 20 -26 28 -38 25 -33 -10 3 -16 1 -30
-3 -30 -14 0 -15 35 -2 63 7 15 11 28 8 28 -18 5 -26 7 -30 9 -3 1 -8 3 -12 5
-28 7 -43 19 -43 34 1 14 3 13 15 -3 8 -11 15 -16 15 -11z m164 12 c3 3 6 1 6
-5 0 -16 -12 -15 -36 4 -18 15 -18 15 2 5 12 -6 24 -7 28 -4z m223 0 c0 -7
-12 -14 -26 -14 -14 -1 -41 -4 -60 -7 -18 -3 -31 -3 -28 1 7 6 51 14 79 14 10
0 20 4 23 10 8 12 12 11 12 -4z m183 3 c0 -5 -8 -10 -17 -10 -15 0 -16 2 -3
10 19 12 20 12 20 0z m-766 -22 c-4 -34 -5 -35 -13 -13 -9 21 -5 35 8 35 4 0
7 -10 5 -22z m101 12 c3 -5 1 -10 -4 -10 -6 0 -11 5 -11 10 0 6 2 10 4 10 3 0
8 -4 11 -10z m325 -9 c0 -4 -11 -6 -25 -3 -14 2 -25 6 -25 8 0 2 11 4 25 4 14
0 25 -4 25 -9z m300 -1 c0 -5 -3 -9 -7 -8 -5 0 -16 -2 -25 -6 -10 -4 -23 -6
-30 -3 -7 3 -3 6 9 6 12 1 25 6 28 11 3 6 10 10 16 10 5 0 9 -4 9 -10z m1595
-12 c-1 -13 3 -30 9 -38 9 -13 9 -13 -5 -2 -13 9 -19 43 -10 60 4 9 7 -1 6
-20z m-183 -13 c3 -13 1 -22 -3 -19 -9 5 -13 44 -5 44 2 0 6 -11 8 -25z m73 6
c-3 -5 -1 -12 5 -16 5 -3 10 -11 10 -18 0 -6 -6 -2 -14 8 -13 18 -13 35 0 35
3 0 3 -4 -1 -9z m147 -18 c-3 -16 -7 -22 -10 -15 -4 13 4 42 11 42 2 0 2 -12
-1 -27z m-1717 7 c-3 -5 -14 -10 -23 -10 -15 0 -15 2 -2 10 20 13 33 13 25 0z
m-445 -20 c-13 -25 -3 -26 24 -3 19 15 19 15 -1 -7 -18 -20 -24 -21 -37 -10
-9 7 -16 18 -16 24 0 7 4 6 9 -2 7 -11 9 -11 14 2 4 9 9 16 12 16 3 0 1 -9 -5
-20z m400 11 c0 -14 -44 -21 -55 -9 -7 8 -6 9 2 4 7 -4 21 -2 30 3 22 13 23
13 23 2z m-593 -7 c-3 -3 -12 -4 -19 -1 -8 3 -5 6 6 6 11 1 17 -2 13 -5z m405
-7 c29 -5 32 -16 3 -11 -17 3 -24 1 -20 -6 11 -17 -7 -11 -21 8 -12 16 -13 15
-9 -5 2 -13 -1 -25 -6 -28 -5 -4 -7 -10 -4 -15 3 -5 1 -11 -4 -14 -5 -3 -7 12
-5 35 3 25 0 38 -6 34 -5 -3 -10 -2 -10 4 0 9 33 8 82 -2z m66 -21 c3 -12 -1
-17 -10 -14 -7 3 -15 13 -16 22 -3 12 1 17 10 14 7 -3 15 -13 16 -22z m59 10
c5 -4 4 -7 -2 -6 -23 5 -34 -1 -29 -15 4 -8 2 -15 -3 -15 -5 0 -10 11 -11 25
-1 20 2 24 18 22 11 -2 23 -7 27 -11z m-537 -11 c-10 -12 -10 -15 0 -15 10 0
10 -3 0 -15 -7 -8 -9 -15 -4 -15 11 0 10 -62 -1 -80 -4 -7 -2 -16 5 -20 9 -5
9 -9 1 -14 -6 -4 -11 -12 -11 -17 0 -6 6 -7 13 -3 8 5 8 2 -2 -9 -8 -10 -9
-17 -3 -17 7 0 8 -10 2 -30 -5 -18 -5 -30 1 -30 5 0 9 -4 9 -10 0 -5 -6 -10
-13 -10 -9 0 -12 37 -12 150 0 120 3 150 14 150 11 0 11 -3 1 -15z m2120 5 c0
-5 -2 -10 -4 -10 -3 0 -8 5 -11 10 -3 6 -1 10 4 10 6 0 11 -4 11 -10z m-1925
-30 c4 -6 -1 -7 -12 -3 -16 6 -17 5 -3 -13 14 -17 13 -18 -1 -7 -9 7 -19 10
-22 6 -4 -3 -7 -1 -7 5 0 9 14 19 32 21 4 1 10 -3 13 -9z m203 -12 c-1 -13 -6
-29 -11 -35 -11 -15 -37 -17 -37 -3 0 6 3 9 8 9 24 -4 32 3 28 26 -3 14 -1 25
4 25 5 0 8 -10 8 -22z m75 -8 c3 -11 1 -20 -4 -20 -5 0 -9 9 -9 20 0 11 2 20
4 20 2 0 6 -9 9 -20z m34 -12 c-2 -12 -10 -24 -18 -26 -11 -3 -12 -2 -1 6 8 5
13 12 13 16 -2 15 -1 26 4 26 3 0 3 -10 2 -22z m2243 -9 c19 -6 49 -17 66 -24
69 -31 136 -126 136 -192 0 -76 -91 -149 -182 -146 -25 1 -80 3 -122 4 l-78 2
-1 41 c-5 243 -4 310 8 322 15 14 114 10 173 -7z m-2580 7 c0 -2 -8 -10 -17
-17 -16 -13 -17 -12 -4 4 13 16 21 21 21 13z m-299 -16 c18 5 27 5 24 -1 -4
-5 -1 -9 4 -9 6 0 11 5 11 12 0 6 9 1 20 -12 23 -27 23 -27 8 -36 -7 -5 -8 -3
-3 6 5 9 4 11 -4 6 -8 -6 -9 -12 -2 -20 6 -7 8 -16 4 -20 -4 -4 -1 -11 7 -16
12 -8 12 -10 1 -10 -7 0 -11 -6 -8 -14 3 -7 0 -19 -6 -25 -9 -9 -7 -10 8 -5
19 7 19 7 2 -13 -14 -16 -15 -23 -6 -29 8 -5 10 -3 4 6 -6 9 -4 11 4 5 9 -5
10 -10 2 -18 -7 -7 -7 -15 2 -26 9 -12 9 -13 0 -7 -8 4 -13 1 -13 -8 0 -9 6
-16 13 -16 8 0 7 -4 -3 -10 -8 -5 -10 -10 -5 -10 6 0 3 -5 -5 -10 -12 -8 -12
-10 -1 -10 8 0 11 -7 8 -20 -3 -13 -1 -18 6 -13 7 4 6 -1 -2 -10 -11 -13 -11
-17 -1 -17 8 0 11 -3 8 -6 -4 -3 -16 -1 -27 5 -18 10 -20 9 -14 -6 6 -15 4
-16 -8 -6 -12 10 -18 10 -29 0 -10 -10 -11 -9 -5 3 6 12 5 13 -5 3 -10 -9 -17
-10 -27 -2 -9 8 -14 7 -19 -5 -5 -12 -10 -13 -25 -5 -14 7 -19 6 -19 -3 0 -6
-7 -3 -15 8 -13 16 -14 16 -9 1 5 -13 2 -16 -10 -11 -9 3 -16 10 -16 15 0 4
-7 5 -17 2 -11 -4 -14 -3 -9 5 5 8 2 10 -8 6 -9 -3 -16 -1 -16 5 0 6 -5 11
-11 11 -7 0 -24 12 -38 28 -29 31 -39 85 -19 110 9 11 9 13 1 9 -7 -4 0 15 14
42 15 27 30 48 34 45 4 -2 10 5 14 16 4 11 10 18 15 15 4 -3 11 2 14 11 4 9 9
14 12 11 4 -3 13 1 21 9 8 8 19 12 24 9 5 -4 9 0 9 7 0 9 3 9 10 -2 7 -12 10
-12 10 -1 0 9 8 11 25 7 14 -4 25 -3 24 1 -3 16 3 28 7 16 4 -8 14 -9 35 -3z
m199 -25 c0 -2 -9 -3 -19 -2 -11 0 -18 5 -15 9 4 6 34 0 34 -7z m-4 -77 c3 -4
-1 -5 -10 -4 -8 1 -18 5 -22 8 -3 4 1 5 10 4 8 -1 18 -5 22 -8z m2247 -11 c21
3 28 1 19 -5 -18 -12 -55 -8 -58 7 -1 6 0 8 2 3 2 -5 19 -7 37 -5z m67 -3 c0
-2 -7 -4 -15 -4 -8 0 -15 4 -15 10 0 5 7 7 15 4 8 -4 15 -8 15 -10z m46 -76
c1 -35 -2 -55 -5 -44 -4 10 -7 38 -6 62 1 28 -3 45 -12 48 -7 3 -13 11 -13 18
0 8 6 6 17 -5 12 -12 18 -35 19 -79z m-386 68 c0 -4 -11 -6 -25 -4 -14 3 -25
1 -25 -5 0 -6 -3 -8 -6 -4 -11 11 4 22 30 22 14 0 26 -4 26 -9z m74 4 c2 -3
-11 -6 -30 -7 -19 -1 -32 2 -30 6 5 8 52 9 60 1z m102 3 c-8 -8 -86 -12 -86
-5 0 4 20 8 45 8 25 1 44 -1 41 -3z m44 3 c0 -11 -19 -15 -25 -6 -3 5 1 10 9
10 9 0 16 -2 16 -4z m-450 -18 c0 -4 -9 -8 -20 -8 -11 0 -20 4 -20 8 0 4 9 8
20 8 11 0 20 -4 20 -8z m160 4 c0 -8 -135 -10 -143 -2 -3 3 28 6 69 7 41 1 74
-1 74 -5z m-1900 -7 c0 -7 -30 -13 -34 -7 -3 4 4 9 15 9 10 1 19 0 19 -2z
m1480 -4 c0 -4 -19 -8 -42 -10 -24 -1 -60 -4 -80 -5 -20 -1 -35 0 -33 4 2 3
25 7 52 9 26 1 48 3 49 4 6 6 54 4 54 -2z m89 5 c-8 -8 -60 -15 -55 -8 2 4 17
9 32 10 15 1 25 0 23 -2z m111 -2 c-36 -8 -100 -9 -100 -2 0 5 26 7 58 7 31
-1 50 -3 42 -5z m633 -34 c3 -11 1 -18 -4 -14 -5 3 -9 11 -9 19 0 10 -7 12
-30 5 -17 -5 -30 -5 -30 0 0 8 48 19 61 13 4 -1 9 -12 12 -23z m-353 10 c0 -5
-10 -10 -22 -9 -22 0 -22 1 -3 9 11 5 21 9 23 9 1 1 2 -3 2 -9z m60 0 c0 -5
-5 -10 -11 -10 -5 0 -7 5 -4 10 3 6 8 10 11 10 2 0 4 -4 4 -10z m100 4 c0 -8
-19 -13 -24 -6 -3 5 1 9 9 9 8 0 15 -2 15 -3z m40 2 c0 -11 -19 -15 -25 -6 -3
5 1 10 9 10 9 0 16 -2 16 -4z m37 -2 c-3 -3 -12 -4 -19 -1 -8 3 -5 6 6 6 11 1
17 -2 13 -5z m-518 -18 c-7 -7 -140 -13 -144 -6 -2 3 10 6 28 6 18 -1 50 1 72
4 39 6 53 4 44 -4z m56 4 c3 -5 1 -10 -4 -10 -6 0 -11 5 -11 10 0 6 2 10 4 10
3 0 8 -4 11 -10z m145 -2 c0 -4 -4 -8 -9 -8 -6 0 -12 4 -15 8 -3 5 1 9 9 9 8
0 15 -4 15 -9z m-550 -18 c0 -11 -2 -20 -4 -20 -2 0 -6 9 -9 20 -3 11 -1 20 4
20 5 0 9 -9 9 -20z m90 10 c0 -5 -9 -10 -20 -10 -10 0 -24 -8 -30 -17 -8 -12
-10 -13 -7 -3 2 8 14 21 28 27 29 15 29 15 29 3z m40 0 c0 -5 -8 -10 -17 -10
-15 0 -16 2 -3 10 19 12 20 12 20 0z m55 1 c-3 -2 -16 -6 -28 -8 -15 -2 -18 0
-9 5 14 9 45 12 37 3z m282 3 c-3 -3 -12 -4 -19 -1 -8 3 -5 6 6 6 11 1 17 -2
13 -5z m662 -21 c0 -5 -4 -17 -9 -28 -8 -17 -8 -16 -7 8 1 15 5 27 9 27 4 0 8
-3 7 -7z m-710 -17 c-2 -3 -28 -7 -56 -10 -29 -2 -57 -7 -63 -11 -5 -3 -8 0
-5 7 3 8 27 14 67 15 34 2 59 1 57 -1z m-1799 -32 c0 -3 -4 -2 -10 1 -5 3 -11
1 -11 -4 -3 -26 -4 -30 -9 -35 -3 -3 -5 10 -5 29 0 28 2 32 18 24 9 -5 17 -12
17 -15z m127 13 c6 2 14 0 17 -5 3 -5 -8 -9 -24 -8 -16 0 -32 7 -35 14 -3 9 0
10 13 4 9 -5 22 -7 29 -5z m1258 4 c3 -5 1 -12 -5 -16 -5 -3 -10 1 -10 9 0 18
6 21 15 7z m275 3 c0 -8 -19 -13 -24 -6 -3 5 1 9 9 9 8 0 15 -2 15 -3z m166
-13 c-3 -4 -1 -24 4 -45 6 -28 5 -35 -2 -28 -13 13 -19 94 -6 86 4 -3 6 -9 4
-13z m-1776 -2 c0 -5 -4 -7 -10 -4 -5 3 -10 -3 -10 -13 0 -16 6 -20 30 -18 30
2 41 -16 18 -30 -7 -4 -8 -3 -4 4 6 11 -26 18 -56 13 -11 -1 -5 43 7 51 14 11
25 10 25 -3z m25 1 c3 -5 1 -10 -4 -10 -6 0 -11 5 -11 10 0 6 2 10 4 10 3 0 8
-4 11 -10z m92 -12 c-3 -8 -6 -5 -6 6 -1 11 2 17 5 13 3 -3 4 -12 1 -19z m111
8 c3 -3 -19 -6 -49 -5 -39 1 -47 3 -29 8 27 8 68 6 78 -3z m42 -2 c0 -2 -7 -4
-15 -4 -8 0 -15 4 -15 10 0 5 7 7 15 4 8 -4 15 -8 15 -10z m66 3 c4 -4 -7 -7
-25 -7 -18 0 -30 4 -27 8 6 10 42 9 52 -1z m21 -9 c-3 -8 -6 -5 -6 6 -1 11 2
17 5 13 3 -3 4 -12 1 -19z m111 8 c3 -3 -19 -6 -49 -5 -39 1 -47 3 -29 8 27 8
68 6 78 -3z m42 -2 c0 -2 -7 -4 -15 -4 -8 0 -15 4 -15 10 0 5 7 7 15 4 8 -4
15 -8 15 -10z m66 3 c4 -4 -7 -7 -25 -7 -18 0 -30 4 -27 8 6 10 42 9 52 -1z
m21 -9 c-3 -8 -6 -5 -6 6 -1 11 2 17 5 13 3 -3 4 -12 1 -19z m111 8 c3 -3 -19
-6 -49 -5 -39 1 -47 3 -29 8 27 8 68 6 78 -3z m42 -2 c0 -2 -7 -4 -15 -4 -8 0
-15 4 -15 10 0 5 7 7 15 4 8 -4 15 -8 15 -10z m66 3 c4 -4 -7 -7 -25 -7 -18 0
-30 4 -27 8 6 10 42 9 52 -1z m21 -9 c-3 -8 -6 -5 -6 6 -1 11 2 17 5 13 3 -3
4 -12 1 -19z m111 8 c3 -3 -19 -6 -49 -5 -39 1 -47 3 -29 8 27 8 68 6 78 -3z
m42 -2 c0 -2 -7 -4 -15 -4 -8 0 -15 4 -15 10 0 5 7 7 15 4 8 -4 15 -8 15 -10z
m66 3 c4 -4 -7 -7 -25 -7 -18 0 -30 4 -27 8 6 10 42 9 52 -1z m105 4 c9 -1 19
-10 22 -21 3 -11 1 -18 -4 -14 -5 3 -9 0 -9 -5 0 -6 -10 -11 -22 -10 l-23 0
23 9 c38 16 25 30 -28 30 -27 0 -50 3 -50 8 0 4 17 6 37 5 21 -1 45 -2 54 -2z
m215 -10 c0 -11 -4 -17 -8 -15 -4 3 -8 12 -8 20 0 8 4 14 8 14 4 0 8 -9 8 -19z
m114 9 c0 -5 -5 -10 -11 -10 -5 0 -7 5 -4 10 3 6 8 10 11 10 2 0 4 -4 4 -10z
m80 6 c0 -9 -30 -14 -35 -6 -4 6 3 10 14 10 12 0 21 -2 21 -4z m-105 -26 c3
-5 1 -10 -4 -10 -6 0 -11 5 -11 10 0 6 2 10 4 10 3 0 8 -4 11 -10z m991 -130
c1 -77 -2 -140 -5 -140 -3 0 -6 63 -7 140 0 77 2 140 5 140 3 0 6 -63 7 -140z
m-1120 103 c0 -16 4 -64 7 -107 4 -44 4 -77 2 -74 -3 3 -8 27 -10 54 -3 27 -7
73 -10 102 -2 28 -1 52 3 52 4 0 7 -12 8 -27z m1026 2 c6 -29 -7 -34 -15 -6
-4 17 0 31 9 31 1 0 4 -11 6 -25z m-2283 -6 c-15 -9 -32 -2 -24 11 3 5 13 6
21 3 12 -4 13 -8 3 -14z m77 8 c2 -2 -9 -4 -26 -5 -16 0 -30 3 -30 7 0 8 48 6
56 -2z m94 1 c0 -4 -7 -8 -15 -8 -8 0 -15 4 -15 8 0 5 7 9 15 9 8 0 15 -4 15
-9z m35 2 c3 -5 -1 -10 -10 -10 -9 0 -13 5 -10 10 3 6 8 10 10 10 2 0 7 -4 10
-10z m121 -3 c3 -3 -20 -4 -51 -4 -30 0 -55 3 -55 6 0 7 99 5 106 -2z m84 1
c0 -4 -7 -8 -15 -8 -8 0 -15 4 -15 8 0 5 7 9 15 9 8 0 15 -4 15 -9z m30 2 c0
-5 -5 -10 -11 -10 -5 0 -7 5 -4 10 3 6 8 10 11 10 2 0 4 -4 4 -10z m30 0 c0
-5 -5 -10 -11 -10 -5 0 -7 5 -4 10 3 6 8 10 11 10 2 0 4 -4 4 -10z m86 -2 c2
-3 -14 -5 -37 -6 -22 -1 -38 2 -35 6 5 8 64 8 72 0z m94 0 c0 -4 -7 -8 -15 -8
-8 0 -15 4 -15 8 0 5 7 9 15 9 8 0 15 -4 15 -9z m35 2 c3 -5 -1 -10 -10 -10
-9 0 -13 5 -10 10 3 6 8 10 10 10 2 0 7 -4 10 -10z m121 -3 c3 -3 -20 -4 -51
-4 -30 0 -55 3 -55 6 0 7 99 5 106 -2z m84 1 c0 -4 -7 -8 -15 -8 -8 0 -15 4
-15 8 0 5 7 9 15 9 8 0 15 -4 15 -9z m30 2 c0 -5 -5 -10 -11 -10 -5 0 -7 5 -4
10 3 6 8 10 11 10 2 0 4 -4 4 -10z m30 0 c0 -5 -5 -10 -11 -10 -5 0 -7 5 -4
10 3 6 8 10 11 10 2 0 4 -4 4 -10z m86 -2 c2 -3 -14 -5 -37 -6 -22 -1 -38 2
-35 6 5 8 64 8 72 0z m1201 -10 c-3 -8 -6 -5 -6 6 -1 11 2 17 5 13 3 -3 4 -12
1 -19z m-2114 5 c-7 -2 -19 -2 -25 0 -7 3 -2 5 12 5 14 0 19 -2 13 -5z m244 1
c-3 -3 -12 -4 -19 -1 -8 3 -5 6 6 6 11 1 17 -2 13 -5z m236 -1 c-7 -2 -19 -2
-25 0 -7 3 -2 5 12 5 14 0 19 -2 13 -5z m244 1 c-3 -3 -12 -4 -19 -1 -8 3 -5
6 6 6 11 1 17 -2 13 -5z m453 -9 c0 -8 -4 -15 -10 -15 -5 0 -7 7 -4 15 4 8 8
15 10 15 2 0 4 -7 4 -15z m80 -30 c0 -25 -3 -45 -8 -45 -4 0 -6 20 -4 45 2 25
6 45 8 45 2 0 4 -20 4 -45z m-1528 -6 c-3 -32 -1 -40 8 -34 10 6 11 4 4 -6 -5
-8 -9 -18 -9 -23 0 -5 -6 -10 -13 -12 -8 -2 -8 0 -1 3 8 4 7 8 -2 14 -8 5 -9
9 -3 9 8 0 9 13 4 40 -5 26 -3 41 4 44 6 2 11 5 11 5 0 1 -1 -18 -3 -40z
m2274 -8 c-14 -25 -14 -30 -1 -41 8 -7 13 -16 10 -20 -3 -5 -1 -11 4 -14 5 -4
8 -12 7 -19 -3 -20 -17 -38 -26 -32 -5 3 -11 1 -14 -4 -4 -5 -2 -12 4 -16 5
-3 10 -12 10 -18 0 -7 -5 -4 -11 6 -6 9 -14 15 -20 12 -5 -4 -9 -2 -9 4 0 5 6
11 12 13 8 3 1 12 -15 22 -15 10 -27 22 -27 28 0 5 7 3 15 -4 9 -7 21 -18 28
-23 7 -6 18 -10 26 -10 16 0 24 32 10 41 -5 3 -7 9 -4 14 3 4 -2 13 -10 20
-13 11 -13 16 1 41 8 16 17 29 20 29 2 0 -2 -13 -10 -29z m41 9 c-1 -21 -12
-26 -22 -10 -3 6 -1 10 5 10 6 0 8 5 5 10 -3 6 -2 10 4 10 5 0 9 -9 8 -20z
m70 -2 c-3 -8 -6 -5 -6 6 -1 11 2 17 5 13 3 -3 4 -12 1 -19z m-935 -17 c2 -17
1 -28 -4 -25 -8 5 -12 54 -4 54 2 0 6 -13 8 -29z m778 16 c0 -5 -7 -7 -15 -3
-20 7 -49 -46 -33 -62 8 -8 8 -15 -1 -26 -11 -13 -8 -20 15 -41 16 -15 22 -25
14 -23 -8 2 -24 16 -34 31 l-19 29 -14 -29 c-8 -17 -11 -20 -7 -6 12 50 12 63
2 63 -6 0 -8 3 -5 6 4 4 14 1 24 -7 15 -12 16 -12 11 2 -8 21 25 76 46 76 9 0
16 -5 16 -10z m206 -24 c1 -21 4 -82 6 -135 3 -54 2 -98 -1 -98 -4 0 -8 42
-10 93 -1 50 -4 108 -6 127 -2 30 1 50 8 50 1 0 3 -17 3 -37z m-2390 15 c3 -4
-1 -5 -10 -4 -8 1 -18 5 -22 8 -3 4 1 5 10 4 8 -1 18 -5 22 -8z m69 2 c-3 -5
-12 -10 -18 -10 -7 0 -6 4 3 10 19 12 23 12 15 0z m1741 -16 c1 -9 0 -13 -4
-10 -3 4 -7 14 -8 22 -1 9 0 13 4 10 3 -4 7 -14 8 -22z m134 6 c14 -11 20 -20
14 -20 -6 0 -17 7 -24 15 -7 8 -25 15 -41 15 -23 0 -29 -5 -30 -22 0 -13 -3
-17 -6 -10 -17 42 42 57 87 22z m81 -3 c-10 -9 -11 -8 -5 6 3 10 9 15 12 12 3
-3 0 -11 -7 -18z m67 -4 c9 -15 10 -23 3 -23 -6 0 -11 7 -11 15 0 14 -12 19
-32 16 -5 0 -8 4 -8 10 0 18 32 5 48 -18z m80 -18 c-6 -14 -13 -23 -15 -21 -5
5 15 46 22 46 3 0 -1 -11 -7 -25z m179 5 c-2 -11 -6 -22 -9 -26 -4 -3 -5 2 -3
13 2 10 4 21 4 26 1 4 3 7 6 7 3 0 4 -9 2 -20z m-2197 -5 c0 -1 -11 -5 -25 -7
-16 -3 -25 -1 -25 7 0 8 9 10 25 7 14 -2 25 -6 25 -7z m68 3 c20 3 34 1 30 -3
-9 -9 -88 -13 -88 -5 0 11 14 22 17 13 2 -5 20 -7 41 -5z m1712 -5 c0 -3 -9
-3 -20 0 -18 5 -20 2 -16 -24 2 -17 0 -27 -6 -23 -5 3 -7 8 -4 11 3 3 1 14 -4
24 -7 12 -6 19 3 22 14 4 47 -3 47 -10z m136 -15 c11 -35 -3 -67 -27 -63 -30
6 -35 13 -20 28 8 8 11 8 9 1 -3 -12 1 -14 22 -14 16 0 12 46 -5 60 -13 10
-15 9 -15 -9 0 -11 -5 -21 -11 -21 -5 0 -8 3 -6 8 2 4 7 15 10 24 8 22 34 13
43 -14z m191 10 c-3 -8 -6 -5 -6 6 -1 11 2 17 5 13 3 -3 4 -12 1 -19z m-2172
-5 c0 -20 12 -25 61 -25 27 0 42 -3 35 -7 -16 -10 -95 -2 -99 10 -2 5 -9 6
-15 2 -8 -4 -7 -1 1 9 9 11 9 18 2 21 -6 3 -5 4 2 3 7 -2 13 -8 13 -13z m215
13 c0 -2 -9 -6 -20 -9 -11 -3 -20 -1 -20 4 0 5 9 9 20 9 11 0 20 -2 20 -4z
m160 -5 c0 -8 -138 -7 -145 1 -4 3 28 6 69 6 42 -1 76 -4 76 -7z m203 -1 c3
-3 -39 -5 -93 -5 -54 0 -97 2 -95 5 4 7 182 7 188 0z m137 0 c0 -3 -27 -6 -59
-6 -33 0 -58 3 -56 6 4 7 115 7 115 0z m100 -2 c0 -8 -79 -8 -84 1 -2 3 16 6
40 6 24 0 44 -3 44 -7z m100 0 c0 -3 -21 -6 -47 -6 -31 1 -40 3 -25 7 31 8 72
8 72 -1z m65 2 c3 -6 -4 -10 -17 -10 -18 0 -20 2 -8 10 19 12 18 12 25 0z m40
0 c3 -5 -1 -10 -10 -10 -9 0 -13 5 -10 10 3 6 8 10 10 10 2 0 7 -4 10 -10z
m122 -4 c3 -3 -20 -6 -53 -6 -32 0 -54 4 -47 8 13 8 91 7 100 -2z m773 4 c-8
-5 -22 -10 -30 -10 -13 0 -13 1 0 10 8 5 22 10 30 10 13 0 13 -1 0 -10z m-525
-50 c0 -27 -3 -52 -6 -54 -4 -5 -4 93 0 102 5 10 7 -5 6 -48z m340 40 c3 -5 1
-10 -4 -10 -6 0 -11 5 -11 10 0 6 2 10 4 10 3 0 8 -4 11 -10z m-568 -19 c0
-11 -5 -18 -9 -15 -4 3 -5 11 -1 19 7 21 12 19 10 -4z m157 3 c3 -8 2 -12 -4
-9 -6 3 -10 10 -10 16 0 14 7 11 14 -7z m460 1 c-4 -8 -8 -15 -10 -15 -2 0 -4
7 -4 15 0 8 4 15 10 15 5 0 7 -7 4 -15z m87 -2 c13 -16 12 -17 -3 -4 -17 13
-22 21 -14 21 2 0 10 -8 17 -17z m-1721 -13 c-19 -13 -30 -13 -30 0 0 6 10 10
23 10 18 0 19 -2 7 -10z m130 1 c0 -8 -99 -5 -107 3 -3 3 20 5 51 5 31 -1 56
-4 56 -8z m104 1 c4 -8 -62 -7 -70 0 -2 3 12 5 31 6 19 1 36 -2 39 -6z m65 -2
c-10 -7 -49 -2 -49 5 0 2 14 3 31 3 17 -1 25 -4 18 -8z m51 -2 c0 -4 -4 -8 -9
-8 -6 0 -12 4 -15 8 -3 5 1 9 9 9 8 0 15 -4 15 -9z m40 -2 c-7 -7 -13 -7 -20
0 -6 6 -3 10 10 10 13 0 16 -4 10 -10z m44 2 c-3 -4 -9 -8 -15 -8 -5 0 -9 4
-9 8 0 5 7 9 15 9 8 0 12 -4 9 -9z m84 -3 c3 -2 -12 -3 -31 -2 -19 1 -33 5
-31 9 4 6 55 1 62 -7z m72 4 c0 -4 -9 -7 -19 -6 -11 0 -18 4 -16 7 6 9 35 8
35 -1z m60 1 c0 -5 -5 -10 -11 -10 -5 0 -7 5 -4 10 3 6 8 10 11 10 2 0 4 -4 4
-10z m90 -6 c0 -2 -11 -3 -24 -2 -14 1 -23 5 -20 9 4 7 44 0 44 -7z m106 4 c4
-7 4 -10 -1 -6 -4 4 -13 4 -19 0 -6 -4 -27 -5 -46 -1 l-35 7 37 -1 c20 -1 40
2 44 6 10 10 12 9 20 -5z m38 4 c3 -5 -1 -9 -9 -9 -8 0 -12 4 -9 9 3 4 7 8 9
8 2 0 6 -4 9 -8z m710 -71 c3 -30 4 -52 1 -49 -3 3 -8 25 -11 49 -3 24 -7 53
-10 64 -4 16 -3 17 5 5 5 -8 12 -39 15 -69z m465 39 c0 -10 -3 -8 -9 5 -12 27
-12 43 0 25 5 -8 9 -22 9 -30z m62 -22 c-1 -29 -4 -55 -7 -57 -3 -3 -4 23 -3
57 1 34 4 60 7 57 3 -3 4 -29 3 -57z m-2394 45 c-4 -3 -2 -12 4 -19 7 -8 7
-14 -1 -19 -8 -5 -6 -14 7 -28 16 -20 16 -20 0 -8 -15 12 -17 11 -14 -8 2 -13
10 -27 18 -32 11 -7 11 -9 0 -9 -8 0 -11 -6 -7 -16 3 -8 2 -12 -4 -9 -14 9
-12 -9 2 -23 9 -9 9 -12 -3 -12 -11 0 -14 19 -15 95 0 55 4 95 10 95 5 0 6 -3
3 -7z m1221 0 c-10 -2 -26 -2 -35 0 -10 3 -2 5 17 5 19 0 27 -2 18 -5z m42 3
c0 -3 -4 -8 -10 -11 -5 -3 -10 -1 -10 4 0 6 5 11 10 11 6 0 10 -2 10 -4z m719
-22 c-12 -15 -45 -19 -53 -6 -2 4 8 8 22 7 17 0 26 5 24 13 -1 8 2 11 8 7 8
-5 7 -11 -1 -21z m-1908 -7 c-10 -9 -11 -8 -5 6 3 10 9 15 12 12 3 -3 0 -11
-7 -18z m1833 8 c-4 -8 -7 -15 -9 -15 -2 0 -5 7 -9 15 -3 9 0 15 9 15 9 0 12
-6 9 -15z m106 -16 c-48 -38 -96 -59 -109 -46 -6 6 -11 18 -10 27 0 9 4 6 9
-8 9 -22 10 -22 42 -6 18 9 44 25 57 35 13 11 26 19 30 19 3 0 -5 -9 -19 -21z
m-556 -14 c3 -8 1 -15 -4 -15 -6 0 -10 7 -10 15 0 8 2 15 4 15 2 0 6 -7 10
-15z m601 -5 c10 -11 16 -20 13 -20 -3 0 -13 9 -23 20 -10 11 -16 20 -13 20 3
0 13 -9 23 -20z m264 7 c-2 -1 -11 -8 -21 -15 -12 -10 -18 -10 -24 -1 -4 7 -3
9 4 5 6 -3 13 -2 17 4 3 5 11 10 17 10 6 0 9 -1 7 -3z m-903 -59 c2 -24 5 -58
7 -75 2 -18 0 -33 -5 -33 -4 0 -8 15 -9 33 0 17 -2 54 -4 81 -2 26 -1 46 2 43
3 -3 7 -25 9 -49z m684 37 c-7 -9 -15 -13 -19 -10 -3 3 1 10 9 15 21 14 24 12
10 -5z m-2046 -35 c-6 -6 -10 -3 -10 10 0 13 4 16 10 10 7 -7 7 -13 0 -20z
m1466 9 c0 -5 -4 -9 -8 -9 -5 0 -9 7 -9 15 0 8 4 12 9 9 4 -3 8 -9 8 -15z
m-512 -4 c4 -4 -17 -5 -46 -4 -28 2 -52 1 -52 -3 0 -4 -8 -4 -17 -1 -15 6 -15
7 0 12 22 8 106 5 115 -4z m92 -1 c5 -5 -9 -8 -35 -6 -25 2 -43 7 -41 11 6 9
65 6 76 -5z m-236 -5 c-2 -4 -12 -6 -21 -5 -10 2 -32 0 -50 -5 -18 -4 -33 -3
-33 1 0 5 15 10 33 12 55 5 76 4 71 -3z m356 -6 c2 -2 -13 -3 -34 -1 -20 1
-39 5 -42 9 -4 7 68 0 76 -8z m-634 -6 c3 -3 -28 -7 -70 -9 -45 -2 -77 1 -80
7 -4 10 140 12 150 2z m160 6 c-3 -3 -31 -7 -63 -9 -32 -2 -64 -6 -70 -9 -7
-2 -13 0 -13 5 0 5 10 10 23 12 37 5 128 6 123 1z m542 -8 c10 -10 11 -35 1
-29 -5 3 -9 1 -9 -4 0 -10 -111 -5 -122 6 -4 4 9 7 28 7 18 0 34 -3 34 -6 0
-8 45 -3 60 6 17 10 -7 24 -32 20 -10 -2 -18 0 -18 6 0 9 47 5 58 -6z m-988
-4 c0 -3 -13 -7 -30 -7 -16 -1 -30 1 -30 5 0 3 14 7 30 7 17 1 30 -1 30 -5z
m125 0 c4 -7 -107 -2 -114 5 -2 2 21 3 53 3 31 -1 58 -5 61 -8z m1092 -23 c4
-28 -6 -18 -12 12 -2 12 -1 20 2 16 4 -4 8 -16 10 -28z m883 28 c0 -3 -4 -8
-10 -11 -5 -3 -10 -1 -10 4 0 6 5 11 10 11 6 0 10 -2 10 -4z m125 -17 c-10
-15 -25 -10 -19 6 4 8 10 12 15 9 5 -3 7 -10 4 -15z m-2412 -1 c3 4 25 9 49
11 23 1 40 0 37 -3 -2 -3 -21 -6 -42 -8 -35 -2 -58 -22 -34 -31 7 -2 9 -7 6
-11 -4 -4 -17 8 -30 26 -13 19 -16 27 -7 20 9 -7 19 -9 21 -4z m917 0 c0 -5
-21 -8 -46 -8 -25 0 -43 3 -41 8 3 4 24 7 46 7 23 0 41 -3 41 -7z m90 -11 c0
-1 -18 -2 -40 -2 -43 0 -54 11 -17 17 18 3 57 -7 57 -15z m747 6 c-9 -9 -36
-18 -59 -19 -34 -2 -38 -1 -21 6 12 5 32 7 43 5 12 -2 23 2 27 10 3 8 10 15
16 15 6 0 4 -8 -6 -17z m-1003 -4 c-2 -3 -26 -7 -54 -8 -28 0 -56 -3 -61 -6
-5 -4 -9 0 -9 7 0 9 18 13 64 13 36 0 63 -2 60 -6z m36 1 c0 -5 -2 -10 -4 -10
-3 0 -8 5 -11 10 -3 6 -1 10 4 10 6 0 11 -4 11 -10z m-560 -13 c0 -8 -6 -14
-14 -14 -8 0 -12 6 -9 14 3 7 9 13 14 13 5 0 9 -6 9 -13z m60 -3 c0 -8 -5 -12
-10 -9 -6 4 -8 11 -5 16 9 14 15 11 15 -7z m200 3 c0 -7 -9 -13 -20 -13 -25 0
-26 13 -2 19 9 3 18 5 20 6 1 0 2 -5 2 -12z m32 -9 c-7 -7 -12 -8 -12 -2 0 14
12 26 19 19 2 -3 -1 -11 -7 -17z m25 0 c-3 -8 -6 -5 -6 6 -1 11 2 17 5 13 3
-3 4 -12 1 -19z m67 11 c3 -3 -5 -5 -19 -5 -13 0 -22 3 -19 7 4 8 30 6 38 -2z
m738 -14 c3 -13 1 -22 -3 -19 -9 5 -13 44 -5 44 2 0 6 -11 8 -25z m938 -7 c0
-19 -16 -5 -17 14 -2 18 0 20 7 8 5 -8 10 -18 10 -22z m-2156 14 c3 -5 -1 -9
-9 -9 -8 0 -15 4 -15 9 0 4 4 8 9 8 6 0 12 -4 15 -8z m56 3 c0 -7 -30 -13 -34
-7 -3 4 4 9 15 9 10 1 19 0 19 -2z m250 -2 c0 -8 -107 -9 -116 -1 -2 3 23 6
56 7 33 1 60 -2 60 -6z m1210 -1 c0 -5 -7 -9 -15 -9 -8 0 -12 4 -9 9 3 4 9 8
15 8 5 0 9 -4 9 -8z m763 -84 c2 -48 0 -85 -4 -83 -3 3 -6 23 -5 45 1 23 -1
43 -4 45 -3 2 -4 22 -2 45 6 61 10 45 15 -52z m-2343 78 c0 -2 -9 -6 -20 -9
-11 -3 -20 -1 -20 4 0 5 9 9 20 9 11 0 20 -2 20 -4z m1460 -6 c0 -5 -5 -10
-11 -10 -5 0 -7 5 -4 10 3 6 8 10 11 10 2 0 4 -4 4 -10z m80 6 c0 -2 -13 -6
-30 -8 -16 -3 -30 -1 -30 4 0 4 14 8 30 8 17 0 30 -2 30 -4z m-176 -15 c4 -5
-3 -7 -14 -4 -23 6 -26 13 -6 13 8 0 17 -4 20 -9z m41 -1 c3 -6 -1 -7 -9 -4
-18 7 -21 14 -7 14 6 0 13 -4 16 -10z m853 -21 c-3 -8 -7 -3 -11 10 -4 17 -3
21 5 13 5 -5 8 -16 6 -23z m-2434 -40 c2 -24 5 -44 6 -44 8 0 6 -55 -3 -58 -7
-3 -12 5 -12 19 0 13 4 24 9 24 5 0 1 9 -8 19 -12 14 -14 21 -6 26 8 5 8 11 2
17 -5 5 -7 18 -5 29 8 28 12 20 17 -32z m70 32 c-8 -8 -34 -10 -38 -2 -3 4 6
7 19 7 14 0 22 -2 19 -5z m1390 -7 c3 -8 2 -12 -4 -9 -6 3 -10 10 -10 16 0 14
7 11 14 -7z m932 1 c-3 -19 -13 -28 -32 -31 -9 -1 -13 1 -9 4 4 4 12 7 18 7 7
0 13 6 13 13 2 18 4 22 8 22 2 0 3 -7 2 -15z m-1386 -22 c0 -3 -7 -3 -15 1 -8
3 -15 2 -15 -3 0 -10 -37 -7 -47 4 -5 4 -3 6 2 3 6 -3 19 -2 30 2 19 7 45 3
45 -7z m70 9 c0 -4 -15 -9 -32 -10 -19 -1 -28 1 -21 6 16 10 53 13 53 4z m85
-3 c2 -3 -11 -5 -30 -6 -19 -1 -37 2 -40 7 -5 8 61 7 70 -1z m39 -4 c-4 -8
-11 -12 -16 -9 -6 4 -5 10 3 15 19 12 19 11 13 -6z m223 -7 c1 -76 3 -77 106
-68 37 3 67 2 67 -2 0 -14 -158 -14 -172 0 -9 9 -17 80 -10 87 8 8 9 6 9 -17z
m1018 12 c-3 -5 -11 -10 -16 -10 -6 0 -7 5 -4 10 3 6 11 10 16 10 6 0 7 -4 4
-10z m-1529 -12 c4 -7 4 -10 0 -6 -5 4 -19 3 -32 -2 -14 -6 -26 -6 -29 0 -3 5
7 11 22 13 16 2 29 5 30 6 1 0 5 -5 9 -11z m332 -9 c3 -12 2 -12 -6 0 -6 8
-15 10 -22 6 -9 -5 -11 -4 -6 4 10 15 28 10 34 -10z m1042 5 c0 -2 -7 -4 -15
-4 -8 0 -15 4 -15 10 0 5 7 7 15 4 8 -4 15 -8 15 -10z m50 11 c0 -7 -30 -13
-34 -7 -3 4 4 9 15 9 10 1 19 0 19 -2z m-2290 -11 c0 -8 -19 -13 -24 -6 -3 5
1 9 9 9 8 0 15 -2 15 -3z m710 -9 c0 -9 -41 -11 -47 -3 -3 7 -1 8 5 4 7 -4 12
-3 12 3 0 6 7 8 15 5 8 -4 15 -7 15 -9z m80 6 c0 -3 -16 -7 -35 -8 -19 -1 -35
1 -35 5 0 4 16 8 35 8 19 1 35 -1 35 -5z m460 -20 c0 -15 -24 -29 -43 -25 -31
4 -32 14 -2 11 16 -1 30 4 32 11 3 6 -2 12 -11 12 -9 0 -16 5 -16 10 0 7 6 7
20 0 11 -6 20 -14 20 -19z m730 13 c0 -2 -12 -4 -27 -4 -21 0 -24 3 -14 9 13
8 41 5 41 -5z m74 6 c2 -3 -11 -6 -30 -7 -19 -1 -34 1 -34 5 0 8 56 9 64 2z
m36 0 c0 -5 -2 -10 -4 -10 -3 0 -8 5 -11 10 -3 6 -1 10 4 10 6 0 11 -4 11 -10z
m80 3 c0 -8 -57 -10 -65 -2 -2 3 11 6 30 7 19 2 35 -1 35 -5z m-1520 -14 c0
-4 -15 -7 -32 -7 -18 0 -44 -3 -57 -6 -14 -3 -21 -2 -15 3 16 15 104 24 104
10z m1115 1 c3 -5 1 -10 -4 -10 -6 0 -11 5 -11 10 0 6 2 10 4 10 3 0 8 -4 11
-10z m65 -4 c-7 -7 -13 -7 -20 0 -6 6 -3 10 10 10 13 0 16 -4 10 -10z m45 4
c3 -6 -1 -7 -9 -4 -18 7 -21 14 -7 14 6 0 13 -4 16 -10z m42 4 c-3 -3 -12 -4
-19 -1 -8 3 -5 6 6 6 11 1 17 -2 13 -5z m463 -9 c-7 -8 -24 -15 -39 -14 -24 0
-23 1 9 13 19 8 37 14 39 15 2 0 -2 -6 -9 -14z m-1850 -7 c0 -4 -7 -8 -15 -8
-8 0 -15 4 -15 8 0 5 7 9 15 9 8 0 15 -4 15 -9z m419 -2 c-8 -8 -79 -14 -79
-6 0 4 14 7 31 8 17 0 34 3 37 6 3 3 8 4 10 1 3 -3 3 -7 1 -9z m41 4 c0 -5 -8
-10 -17 -10 -15 0 -16 2 -3 10 19 12 20 12 20 0z m176 -3 c2 -2 -33 -4 -80 -3
-46 0 -82 4 -80 8 4 7 152 3 160 -5z m363 -2 c-7 -6 -108 -9 -114 -3 -3 3 18
6 46 7 29 0 54 3 57 6 3 3 8 3 10 0 3 -3 3 -7 1 -10z m148 9 c-7 -7 -87 -12
-83 -5 3 4 23 7 46 8 23 1 40 0 37 -3z m63 2 c0 -2 -11 -6 -25 -8 -14 -3 -25
-1 -25 3 0 5 11 9 25 9 14 0 25 -2 25 -4z m-1253 -12 c-2 -3 -17 -7 -33 -10
-16 -2 -36 -7 -44 -10 -10 -3 -12 -2 -5 4 10 10 33 16 69 19 10 1 16 0 13 -3z
m365 -6 c-14 -14 -62 -18 -62 -5 0 5 11 7 25 5 14 -3 28 -1 31 3 3 5 8 9 12 9
3 0 1 -5 -6 -12z m721 5 c-7 -2 -19 -2 -25 0 -7 3 -2 5 12 5 14 0 19 -2 13 -5z
m737 -3 c0 -3 -22 -6 -50 -6 -27 -1 -50 2 -50 5 0 3 23 6 50 6 28 1 50 -2 50
-5z m-1590 -10 c0 -5 -17 -9 -37 -9 l-38 2 35 7 c19 4 36 8 38 9 1 0 2 -3 2
-9z m30 0 c0 -5 -5 -10 -11 -10 -5 0 -7 5 -4 10 3 6 8 10 11 10 2 0 4 -4 4
-10z m1240 -2 c0 -5 -12 -8 -27 -9 -16 0 -45 -2 -66 -3 -21 -1 -40 2 -43 5 -2
4 7 6 20 5 14 -2 29 0 34 3 14 9 82 7 82 -1z m104 3 c-9 -9 -34 -9 -34 -1 0 5
9 8 20 7 10 -1 17 -3 14 -6z m52 2 c-10 -11 -36 -12 -36 -2 0 5 10 9 22 9 12
0 18 -3 14 -7z m47 0 c-7 -2 -19 -2 -25 0 -7 3 -2 5 12 5 14 0 19 -2 13 -5z
m-1805 -8 c-9 -9 -78 -16 -78 -8 0 4 18 9 41 10 23 1 39 0 37 -2z m246 -6 c3
-3 -6 -6 -19 -7 -14 -1 -25 2 -25 6 0 9 36 9 44 1z m1201 -1 c3 -2 -17 -5 -43
-7 -126 -7 -162 -7 -162 0 0 4 25 6 55 6 30 -1 55 0 55 3 0 6 89 4 95 -2z
m212 6 c-3 -3 -12 -4 -19 -1 -8 3 -5 6 6 6 11 1 17 -2 13 -5z m-1753 -15 c3
-3 -5 -5 -17 -6 -12 0 -50 -3 -84 -6 -35 -4 -63 -3 -63 1 0 4 15 7 33 7 17 -1
48 2 67 5 38 7 57 7 64 -1z m279 1 c3 -3 -17 -6 -45 -8 -27 -1 -47 1 -45 5 6
9 82 11 90 3z m1041 -1 c3 -3 -6 -6 -19 -7 -13 -1 -26 2 -29 6 -5 8 40 9 48 1z
m-1557 -24 c0 -17 -13 -20 -21 -6 -4 5 0 12 6 14 7 3 13 6 14 6 0 1 1 -6 1
-14z m59 6 c-3 -5 -15 -7 -26 -4 -28 7 -25 13 6 13 14 0 23 -4 20 -9z m294 -1
c0 -5 -4 -10 -10 -10 -5 0 -10 5 -10 10 0 6 5 10 10 10 6 0 10 -4 10 -10z m37
4 c-3 -3 -12 -4 -19 -1 -8 3 -5 6 6 6 11 1 17 -2 13 -5z m-125 -26 c-7 -7 -12
-8 -12 -2 0 14 12 26 19 19 2 -3 -1 -11 -7 -17z m51 15 c-7 -2 -19 -2 -25 0
-7 3 -2 5 12 5 14 0 19 -2 13 -5z m-73 -8 c0 -7 -30 -13 -34 -7 -3 4 4 9 15 9
10 1 19 0 19 -2z m-130 -17 c0 -3 -9 -6 -20 -5 -11 1 -20 5 -20 9 0 3 9 6 20
5 11 -1 20 -5 20 -9z m60 4 c0 -5 -9 -8 -20 -7 -29 2 -33 10 -5 13 14 1 25 -2
25 -6z m-254 -14 c5 -7 3 -8 -6 -3 -10 6 -12 3 -8 -13 4 -12 3 -22 -2 -22 -4
0 -10 11 -12 25 -5 26 14 36 28 13z m132 5 c-10 -2 -28 -2 -40 0 -13 2 -5 4
17 4 22 1 32 -1 23 -4z m2067 -3 c4 -6 -6 -10 -22 -9 -25 0 -26 1 -8 9 11 5
21 9 22 9 1 1 5 -3 8 -9z m-61 -11 c-2 -4 -12 -6 -22 -4 -9 1 -27 -1 -39 -6
-12 -5 -25 -4 -28 1 -3 5 7 10 22 12 48 5 72 4 67 -3z m96 1 c0 -5 -2 -10 -4
-10 -3 0 -8 5 -11 10 -3 6 -1 10 4 10 6 0 11 -4 11 -10z m53 3 c-7 -2 -21 -2
-30 0 -10 3 -4 5 12 5 17 0 24 -2 18 -5z m-253 -7 c0 -3 -4 -8 -10 -11 -5 -3
-10 -1 -10 4 0 6 5 11 10 11 6 0 10 -2 10 -4z m469 -63 c-2 -70 -6 -63 -11 20
-2 26 0 47 4 47 5 0 7 -30 7 -67z m-1392 43 c4 -5 3 -6 -4 -2 -6 3 -15 2 -18
-4 -4 -7 -11 -7 -18 -2 -7 5 -24 8 -39 7 -15 -1 -25 1 -23 5 6 9 93 6 102 -4z
m120 0 c4 -5 3 -6 -4 -2 -6 3 -15 2 -18 -4 -4 -7 -11 -7 -18 -2 -7 5 -24 8
-39 7 -15 -1 -25 1 -23 5 6 9 93 6 102 -4z m63 -6 c0 -4 -11 -5 -25 -2 -14 2
-25 8 -25 12 0 4 11 5 25 2 14 -2 25 -8 25 -12z m710 16 c-3 -2 -30 -7 -60
-11 -86 -12 -111 -13 -105 -7 3 3 24 7 47 9 23 2 43 5 45 6 1 2 19 4 40 5 20
2 35 1 33 -2z m298 -8 c-3 -7 -15 -13 -29 -14 -22 -1 -22 -1 -1 3 12 2 20 9
17 14 -4 5 -1 9 5 9 7 0 10 -6 8 -12z m-1548 -17 c0 -3 -15 -5 -32 -4 -41 2
-40 1 -34 11 6 10 66 3 66 -7z m34 11 c3 -5 -1 -9 -9 -9 -8 0 -12 4 -9 9 3 4
7 8 9 8 2 0 6 -4 9 -8z m52 -4 c3 -4 -1 -5 -10 -4 -8 1 -18 5 -22 8 -3 4 1 5
10 4 8 -1 18 -5 22 -8z m48 0 c-3 -4 -11 -5 -19 -1 -21 7 -19 12 4 10 11 0 18
-5 15 -9z m46 4 c0 -5 -7 -9 -15 -9 -8 0 -15 4 -15 9 0 4 7 8 15 8 8 0 15 -4
15 -8z m53 1 c-7 -2 -21 -2 -30 0 -10 3 -4 5 12 5 17 0 24 -2 18 -5z m347 3
c0 -2 -7 -6 -15 -10 -8 -3 -15 -1 -15 4 0 6 7 10 15 10 8 0 15 -2 15 -4z m125
-5 c-9 -8 -36 -10 -30 -2 2 4 11 8 20 8 8 0 13 -3 10 -6z m142 -5 c4 -4 -23
-5 -59 -4 -37 1 -65 5 -63 8 4 7 115 4 122 -4z m63 5 c0 -5 -11 -11 -25 -13
-14 -3 -25 -2 -25 3 0 4 10 10 23 12 12 2 23 5 25 6 1 0 2 -3 2 -8z m80 -1 c0
-5 -8 -10 -17 -10 -15 0 -16 2 -3 10 19 12 20 12 20 0z m40 0 c0 -5 -8 -10
-17 -10 -15 0 -16 2 -3 10 19 12 20 12 20 0z m40 0 c0 -5 -8 -10 -17 -10 -15
0 -16 2 -3 10 19 12 20 12 20 0z m340 -6 c0 -2 -9 -4 -20 -4 -11 0 -20 4 -20
9 0 5 9 7 20 4 11 -3 20 -7 20 -9z m40 0 c0 -2 -7 -4 -15 -4 -8 0 -15 4 -15
10 0 5 7 7 15 4 8 -4 15 -8 15 -10z m-1607 -7 c3 -8 -1 -14 -9 -14 -15 0 -18
9 -7 20 9 9 10 9 16 -6z m77 2 c0 -8 -59 -9 -64 -1 -2 4 11 7 30 7 19 0 34 -2
34 -6z m1027 5 c-3 -3 -12 -4 -19 -1 -8 3 -5 6 6 6 11 1 17 -2 13 -5z m413 -5
c0 -4 -8 -7 -17 -7 -17 1 -68 -5 -168 -18 -22 -3 -43 -8 -47 -10 -5 -3 -8 0
-8 5 0 6 10 11 23 12 12 0 29 2 37 3 8 2 44 6 80 10 35 4 66 8 67 10 6 6 33 2
33 -5z m-2120 -9 c0 -5 -4 -10 -9 -10 -6 0 -13 5 -16 10 -3 6 1 10 9 10 9 0
16 -4 16 -10z m499 -4 c-2 -2 -21 -7 -43 -10 -21 -4 -42 -9 -47 -12 -5 -3 -9
0 -9 5 0 6 8 11 18 12 26 1 65 9 71 14 2 3 7 3 9 0 3 -3 3 -7 1 -9z m67 7 c-8
-8 -56 -11 -51 -3 3 4 16 8 30 8 14 0 24 -3 21 -5z m419 -13 c3 -5 1 -10 -4
-10 -6 0 -11 5 -11 10 0 6 2 10 4 10 3 0 8 -4 11 -10z m55 -1 c0 -4 -9 -9 -20
-12 -12 -3 -20 0 -20 7 0 6 9 12 20 12 11 0 20 -3 20 -7z m60 2 c0 -9 -38 -12
-44 -3 -2 4 7 8 20 8 13 1 24 -1 24 -5z m75 0 c2 -4 -9 -7 -26 -7 -16 0 -29 3
-29 7 0 3 11 7 25 7 14 0 27 -4 30 -7z m49 1 c2 -4 -5 -9 -17 -9 -17 -2 -19 0
-7 7 18 12 18 12 24 2z m76 -11 c0 -4 -13 -6 -30 -3 -16 2 -30 7 -30 11 0 4
14 6 30 3 17 -2 30 -7 30 -11z m-922 -6 c-2 -2 -16 -6 -31 -9 -14 -2 -31 -7
-37 -11 -5 -3 -10 -1 -10 4 0 6 7 12 15 12 28 3 33 4 41 11 4 4 11 5 16 2 5
-3 8 -8 6 -9z m559 8 c-4 -3 -43 -7 -88 -8 -44 -1 -76 0 -71 4 13 8 167 12
159 4z m439 -2 c-3 -4 -17 -7 -32 -5 -41 4 -41 14 0 14 20 0 35 -4 32 -9z
m104 -2 c0 -8 -77 -5 -85 3 -4 3 14 5 39 5 25 -1 46 -5 46 -8z m88 -3 c2 -3
-14 -4 -36 -3 -22 1 -39 4 -36 8 4 7 64 2 72 -5z m198 1 c3 -3 -39 -5 -93 -5
-73 1 -85 3 -48 7 60 7 133 6 141 -2z m29 3 c3 -5 1 -10 -4 -10 -6 0 -11 5
-11 10 0 6 2 10 4 10 3 0 8 -4 11 -10z m69 -1 c-2 -4 -15 -6 -30 -6 -14 0 -21
2 -15 6 5 4 19 7 30 7 11 0 18 -3 15 -7z m-1864 -9 c0 -5 -4 -10 -10 -10 -5 0
-10 5 -10 10 0 6 5 10 10 10 6 0 10 -4 10 -10z m740 3 c0 -5 -26 -9 -58 -9
-31 -1 -81 -4 -109 -7 -29 -3 -53 -2 -53 1 0 4 23 8 52 10 28 1 52 3 54 5 7 6
114 6 114 0z m-455 -12 c-8 -8 -34 -11 -112 -12 -71 -1 -96 -10 -71 -25 6 -4
34 -7 60 -7 26 1 48 -2 48 -6 0 -8 -105 -5 -119 4 -5 3 -9 14 -8 23 1 16 12
19 86 20 47 2 86 4 88 6 2 1 10 3 18 3 8 0 13 -3 10 -6z m161 -13 c4 -7 3 -8
-4 -4 -7 4 -12 2 -12 -4 0 -6 -5 -8 -11 -4 -8 4 -7 9 2 15 18 11 17 11 25 -3z
m64 8 c0 -2 -11 -6 -25 -8 -14 -3 -25 -1 -25 3 0 5 11 9 25 9 14 0 25 -2 25
-4z m-510 -21 c0 -8 -4 -15 -8 -15 -5 0 -9 7 -9 15 0 8 4 15 9 15 4 0 8 -7 8
-15z m400 3 c0 -5 -6 -8 -12 -7 -7 1 -29 -1 -48 -4 -70 -14 -90 -16 -86 -8 3
4 21 8 40 9 20 2 46 6 58 11 28 10 48 10 48 -1z m-168 -30 c-7 -7 -12 -8 -12
-2 0 14 12 26 19 19 2 -3 -1 -11 -7 -17z m-229 -5 c-9 -3 -10 -10 -3 -24 8
-14 7 -19 -2 -19 -10 0 -10 -2 1 -9 7 -5 11 -13 7 -19 -3 -6 -2 -13 3 -16 10
-7 9 -25 -2 -43 -5 -7 -4 -13 0 -13 5 0 8 -15 8 -32 -1 -18 4 -36 9 -40 7 -5
7 -8 1 -8 -6 0 -9 -23 -7 -55 2 -30 7 -53 11 -51 4 3 7 -8 6 -23 0 -16 -5 -27
-10 -24 -12 4 -13 10 -17 125 -2 43 -5 78 -8 78 -3 0 -5 25 -5 56 1 30 -1 57
-5 59 -3 2 -5 16 -4 32 3 35 2 33 17 32 9 0 9 -2 0 -6z m2512 -3 c3 -5 1 -10
-4 -10 -6 0 -11 5 -11 10 0 6 2 10 4 10 3 0 8 -4 11 -10z m2 -50 c2 -11 -1
-20 -5 -20 -4 0 -8 11 -8 25 0 28 8 24 13 -5z m-1861 -6 c1 -9 0 -13 -4 -10
-3 4 -7 14 -8 22 -1 9 0 13 4 10 3 -4 7 -14 8 -22z m-96 -24 c0 -5 -2 -10 -4
-10 -3 0 -8 5 -11 10 -3 6 -1 10 4 10 6 0 11 -4 11 -10z m1102 -4 c10 1 20 -1
22 -5 6 -8 -100 -8 -109 1 -3 3 8 4 25 3 17 -1 30 2 30 9 0 8 2 8 8 0 4 -6 15
-10 24 -8z m356 1 c12 3 13 2 4 -4 -13 -10 -92 -7 -101 3 -3 4 6 5 21 2 15 -3
33 -1 40 3 7 5 14 4 16 -1 2 -5 11 -6 20 -3z m122 1 c0 -5 -24 -8 -52 -8 -29
0 -48 4 -41 8 15 9 93 9 93 0z m45 3 c-9 -8 -36 -10 -30 -2 2 4 11 8 20 8 8 0
13 -3 10 -6z m59 -3 c-6 -9 -44 -6 -44 3 0 4 11 6 24 5 13 0 22 -4 20 -8z m86
8 c0 -2 -11 -6 -25 -8 -14 -3 -25 -1 -25 3 0 5 11 9 25 9 14 0 25 -2 25 -4z
m46 -33 c-4 -12 -14 -19 -26 -18 -31 2 -36 15 -6 15 24 0 26 3 21 23 -6 17 -5
19 5 11 7 -7 9 -21 6 -31z m-1231 14 c28 -2 -16 -4 -97 -5 -82 -1 -148 1 -148
6 0 6 123 6 245 -1z m95 1 c0 -4 -9 -8 -20 -8 -11 0 -20 4 -20 8 0 4 9 8 20 8
11 0 20 -4 20 -8z m90 -4 c0 -2 -7 -4 -15 -4 -8 0 -15 4 -15 10 0 5 7 7 15 4
8 -4 15 -8 15 -10z m30 6 c0 -5 -4 -10 -10 -10 -5 0 -10 5 -10 10 0 6 5 10 10
10 6 0 10 -4 10 -10z m50 5 c0 -2 -9 -9 -20 -15 -12 -6 -20 -7 -20 -1 0 5 8
12 18 14 9 3 18 5 20 6 1 0 2 -1 2 -4z m110 -6 c0 -4 -22 -6 -49 -6 -27 1 -48
4 -46 7 4 7 95 6 95 -1z m40 -1 c0 -4 -4 -8 -9 -8 -6 0 -12 4 -15 8 -3 5 1 9
9 9 8 0 15 -4 15 -9z m180 4 c0 -4 -9 -8 -20 -8 -11 0 -20 4 -20 8 0 4 9 8 20
8 11 0 20 -4 20 -8z m64 0 c2 -4 -9 -7 -24 -7 -16 -1 -27 2 -25 5 5 8 44 10
49 2z m66 4 c0 -2 -11 -6 -25 -8 -14 -3 -25 -1 -25 3 0 5 11 9 25 9 14 0 25
-2 25 -4z m37 -2 c-3 -3 -12 -4 -19 -1 -8 3 -5 6 6 6 11 1 17 -2 13 -5z m612
-21 c-1 -16 2 -36 6 -45 4 -10 3 -18 -2 -18 -5 0 -10 6 -11 13 -1 6 -3 27 -5
45 -2 17 1 32 5 32 5 0 8 -12 7 -27z m-1921 1 c-4 -22 -74 -28 -82 -7 -4 9 -2
11 7 6 20 -13 67 -10 67 4 0 7 3 13 6 13 3 0 4 -7 2 -16z m262 5 c0 -4 -13 -6
-30 -5 -16 0 -30 4 -30 7 0 4 14 6 30 5 17 0 30 -4 30 -7z m423 4 c-7 -2 -19
-2 -25 0 -7 3 -2 5 12 5 14 0 19 -2 13 -5z m-649 -24 c-6 -11 -24 -2 -24 11 0
5 7 7 15 4 8 -4 12 -10 9 -15z m155 17 c-2 -2 -25 -7 -51 -9 -26 -3 -52 -8
-58 -12 -5 -3 -10 0 -10 7 0 9 19 14 62 15 34 2 59 1 57 -1z m-329 -19 c0 -8
-6 -14 -12 -14 -7 -1 -34 -3 -60 -6 -28 -2 -48 0 -48 6 0 5 14 7 30 5 17 -3
30 -1 30 3 0 4 8 5 19 2 10 -3 22 0 25 6 10 15 16 14 16 -2z m45 3 c3 -5 -1
-10 -10 -10 -9 0 -13 5 -10 10 3 6 8 10 10 10 2 0 7 -4 10 -10z m1285 -6 c0
-2 -9 -4 -21 -4 -11 0 -18 4 -14 10 5 8 35 3 35 -6z m219 0 c3 -4 -11 -5 -31
-2 -21 2 -38 2 -38 -2 0 -8 -131 -3 -138 6 -4 4 0 5 8 2 8 -3 24 -2 34 2 23 8
157 3 165 -6z m41 0 c0 -2 -7 -4 -15 -4 -8 0 -15 4 -15 10 0 5 7 7 15 4 8 -4
15 -8 15 -10z m100 6 c0 -5 -5 -10 -11 -10 -5 0 -7 5 -4 10 3 6 8 10 11 10 2
0 4 -4 4 -10z m94 1 c-7 -8 -84 -9 -84 -2 0 4 20 7 44 7 25 0 43 -3 40 -5z
m36 5 c0 -3 -4 -8 -10 -11 -5 -3 -10 -1 -10 4 0 6 5 11 10 11 6 0 10 -2 10 -4z
m30 0 c0 -3 -4 -8 -10 -11 -5 -3 -10 -1 -10 4 0 6 5 11 10 11 6 0 10 -2 10 -4z
m-2185 -31 c-2 -23 9 -31 38 -26 4 0 7 -3 7 -9 0 -11 -28 -9 -47 3 -7 5 -11
18 -9 30 6 28 5 27 10 27 2 0 3 -11 1 -25z m772 8 c-10 -10 -77 -12 -71 -2 3
5 16 7 29 5 14 -3 27 0 31 5 3 6 9 8 12 5 3 -3 2 -9 -1 -13z m43 2 c0 6 48 9
130 7 71 -2 130 -6 130 -10 0 -4 -62 -6 -137 -5 -104 1 -138 5 -141 15 -2 8 0
8 7 -2 6 -8 11 -10 11 -5z m456 2 c3 -2 -35 -4 -85 -3 -49 0 -92 3 -95 6 -2 3
36 5 85 4 49 -1 92 -4 95 -7z m68 1 c-3 -4 -9 -8 -15 -8 -5 0 -9 4 -9 8 0 5 7
9 15 9 8 0 12 -4 9 -9z m276 4 c0 -4 -58 -7 -129 -7 -71 -1 -128 2 -126 5 5 7
255 9 255 2z m360 4 c0 -2 -9 -6 -20 -9 -11 -3 -20 -1 -20 4 0 5 9 9 20 9 11
0 20 -2 20 -4z m-1933 -12 c-3 -3 -12 -4 -19 -1 -8 3 -5 6 6 6 11 1 17 -2 13
-5z m118 -6 c4 -4 -18 -6 -49 -6 -31 1 -56 4 -56 8 0 9 97 7 105 -2z m45 0 c0
-4 -7 -8 -15 -8 -8 0 -15 4 -15 8 0 5 7 9 15 9 8 0 15 -4 15 -9z m480 2 c0 -5
-15 -9 -32 -9 l-33 1 30 8 c17 4 31 8 33 9 1 0 2 -3 2 -9z m-135 -10 c10 8 15
8 21 -1 4 -7 3 -9 -4 -5 -6 3 -13 2 -17 -4 -8 -13 -25 -3 -24 13 0 8 2 8 6 -1
4 -9 8 -10 18 -2z m65 0 c0 -5 -7 -7 -15 -4 -8 4 -15 8 -15 10 0 2 7 4 15 4 8
0 15 -4 15 -10z m-230 -15 c12 7 133 15 126 8 -3 -3 -32 -8 -63 -10 -64 -5
-108 -10 -108 -13 0 -5 -47 -6 -50 0 -2 4 1 7 8 7 46 3 67 9 68 18 0 5 3 4 6
-3 2 -6 9 -10 13 -7z m-110 -20 c0 -6 -20 -9 -51 -8 -38 3 -49 0 -43 -9 6 -10
5 -10 -7 -2 -18 15 -69 15 -69 0 0 -6 -4 -5 -9 3 -5 8 -16 11 -25 8 -9 -4 -16
-2 -16 3 0 4 39 8 86 7 47 -1 87 0 89 3 6 10 45 6 45 -5z m1917 -5 c1 -13 -6
-24 -20 -29 -35 -13 -107 -21 -107 -12 0 5 8 8 18 7 33 -1 102 14 102 24 0 5
-8 14 -17 19 -17 10 -16 10 2 11 14 0 21 -7 22 -20z m-101 -2 c4 -7 4 -10 0
-6 -5 4 -19 3 -32 -2 -14 -6 -24 -6 -24 0 0 5 10 11 23 13 12 2 23 5 24 6 1 0
5 -5 9 -11z m47 5 c-7 -2 -19 -2 -25 0 -7 3 -2 5 12 5 14 0 19 -2 13 -5z
m-119 -11 c3 -5 -16 -9 -42 -9 l-47 -1 40 8 c22 4 41 8 42 9 1 0 4 -3 7 -7z
m387 -29 c1 -21 3 -59 4 -84 3 -44 2 -46 -24 -44 -14 1 -28 -2 -31 -5 -3 -4
-14 -4 -25 1 -19 7 -19 8 3 10 12 1 30 2 40 2 9 1 20 6 24 12 8 10 0 122 -9
138 -2 4 1 7 6 7 6 0 12 -17 12 -37z m-1171 16 c0 7 5 9 11 5 8 -4 7 -9 -2
-15 -20 -12 -26 -11 -33 7 -5 14 -4 15 9 4 11 -9 15 -9 15 -1z m90 -5 c0 -2
-13 -4 -30 -4 -16 0 -30 4 -30 8 0 5 14 7 30 4 17 -2 30 -6 30 -8z m30 4 c0 7
5 10 11 6 8 -4 7 -9 -2 -15 -15 -9 -29 -3 -29 14 0 7 4 6 10 -3 7 -11 10 -11
10 -2z m67 -3 c1 -11 -17 -8 -30 4 -4 4 0 7 10 6 10 0 19 -5 20 -10z m77 3
c-3 -4 -9 -8 -15 -8 -5 0 -9 4 -9 8 0 5 7 9 15 9 8 0 12 -4 9 -9z m76 2 c0 -4
-15 -7 -32 -7 -25 -1 -28 1 -13 6 24 10 45 10 45 1z m34 2 c3 -5 -1 -9 -9 -9
-8 0 -12 4 -9 9 3 4 7 8 9 8 2 0 6 -4 9 -8z m189 -2 c3 -3 -32 -5 -78 -5 -46
1 -86 3 -89 6 -3 3 32 5 79 4 46 0 86 -2 88 -5z m121 2 c4 -8 -70 -9 -78 -2
-2 3 13 6 34 7 22 2 41 -1 44 -5z m-924 -12 c0 -5 -17 -9 -37 -9 l-38 2 35 7
c19 4 36 8 38 9 1 0 2 -3 2 -9z m143 0 c3 -3 -27 -6 -66 -6 -40 -1 -64 2 -54
5 20 7 113 8 120 1z m57 6 c0 -2 -9 -6 -20 -9 -11 -3 -20 -1 -20 4 0 5 9 9 20
9 11 0 20 -2 20 -4z m-459 -20 c16 -1 29 1 29 4 0 3 34 6 75 6 90 -1 101 -12
13 -13 -35 -1 -90 -3 -123 -6 -33 -3 -54 -3 -47 0 6 2 9 10 6 15 -5 7 -2 8 5
3 7 -4 26 -8 42 -9z m-601 0 c0 -3 -4 -8 -10 -11 -5 -3 -10 -1 -10 4 0 6 5 11
10 11 6 0 10 -2 10 -4z m526 -8 c5 4 5 3 1 -2 -4 -6 -13 -11 -20 -12 -7 -1
-18 -3 -26 -5 -7 -2 -16 3 -18 11 -4 12 -3 12 5 2 7 -11 10 -10 16 3 5 13 9
15 20 6 7 -6 17 -7 22 -3z m1394 3 c0 -4 -11 -7 -24 -7 -14 0 -23 3 -21 6 5 9
45 10 45 1z m-666 -12 c-3 -6 -56 -9 -226 -13 -54 -1 -95 0 -92 3 2 3 55 7
116 8 62 2 113 5 114 6 6 5 92 1 88 -4z m46 3 c0 -13 -12 -22 -22 -16 -10 6
-1 24 13 24 5 0 9 -4 9 -8z m63 -9 c-3 -7 -9 -10 -14 -7 -14 8 -11 21 5 21 8
0 12 -6 9 -14z m57 7 c0 -4 -7 -7 -15 -6 -23 3 -26 12 -5 13 11 1 20 -2 20 -7z
m83 0 c3 -3 -10 -6 -29 -6 -19 -1 -34 2 -34 5 0 8 56 9 63 1z m47 6 c0 -2 -7
-6 -15 -10 -8 -3 -15 -1 -15 4 0 6 7 10 15 10 8 0 15 -2 15 -4z m56 -9 c4 -3
-4 -4 -16 -2 -30 6 -40 16 -12 12 12 -2 24 -6 28 -10z m74 2 c0 -8 -47 -6 -55
3 -3 2 9 4 25 4 17 0 30 -3 30 -7z m65 2 c-8 -7 -45 -9 -50 -1 -2 3 9 6 25 6
17 0 27 -2 25 -5z m42 3 c-3 -3 -12 -4 -19 -1 -8 3 -5 6 6 6 11 1 17 -2 13 -5z
m53 2 c0 -2 -9 -6 -20 -9 -11 -3 -20 -1 -20 4 0 5 9 9 20 9 11 0 20 -2 20 -4z
m-2005 -16 c3 -5 1 -10 -4 -10 -6 0 -11 5 -11 10 0 6 2 10 4 10 3 0 8 -4 11
-10z m600 0 c-11 -5 -31 -9 -45 -9 -20 0 -22 2 -7 8 10 4 30 7 45 8 24 2 24 1
7 -7z m479 -1 c3 -3 -32 -5 -77 -5 l-82 -1 65 6 c73 7 87 7 94 0z m-598 -11
c4 -6 3 -8 -4 -4 -6 3 -13 2 -17 -3 -3 -5 -13 -9 -23 -9 -9 0 -46 -3 -82 -7
-36 -4 -63 -5 -60 -2 3 3 30 8 61 11 71 8 100 14 107 21 8 7 10 6 18 -7z m44
4 c0 -5 -7 -9 -15 -9 -8 0 -12 4 -9 9 3 4 9 8 15 8 5 0 9 -4 9 -8z m385 -4 c4
-4 -1 -5 -12 -4 -10 2 -27 0 -38 -4 -11 -4 -29 -3 -40 2 -18 8 -18 8 3 4 12
-2 22 -1 22 3 0 9 57 8 65 -1z m-800 -8 c-3 -5 -1 -10 4 -10 6 0 11 -4 11 -10
0 -5 -11 -10 -25 -10 -26 0 -29 -7 -19 -34 3 -9 11 -13 18 -9 6 4 39 9 74 10
53 2 62 0 62 -15 0 -10 -3 -13 -8 -6 -8 12 -66 13 -78 2 -4 -4 -13 -3 -21 4
-10 8 -17 8 -25 0 -12 -12 -41 -4 -32 9 3 5 -3 9 -13 10 -11 0 -13 3 -5 6 6 2
10 9 6 14 -3 5 0 9 6 9 6 0 9 4 6 9 -4 5 3 7 14 4 12 -3 20 -2 19 3 -2 14 0
24 7 24 3 0 2 -4 -1 -10z m665 -5 c0 -1 -10 -3 -22 -3 -13 -1 -32 -3 -43 -6
-11 -2 -30 -5 -43 -5 -16 -1 -21 -5 -16 -13 5 -9 2 -9 -9 1 -14 11 -17 11 -17
0 0 -10 -3 -10 -11 -2 -9 9 -16 7 -28 -6 -9 -9 -11 -10 -6 -2 8 12 5 13 -22 8
-18 -4 -33 -3 -33 2 0 4 6 8 13 8 70 3 198 21 205 28 4 4 32 -5 32 -10z m-560
-21 c0 -2 -19 -4 -42 -4 -26 0 -38 4 -30 8 12 8 72 4 72 -4z m70 5 c0 -4 -13
-6 -29 -5 -16 0 -27 4 -25 8 6 9 54 6 54 -3z m-290 -14 c0 -2 -6 -8 -13 -14
-10 -8 -14 -7 -14 2 0 8 6 14 14 14 7 0 13 -1 13 -2z m520 -2 c0 -5 -19 -9
-43 -10 -23 -2 -37 1 -30 5 17 11 73 14 73 5z m-113 -17 c-2 -6 -31 -10 -66
-10 -52 0 -61 -2 -56 -15 4 -12 1 -11 -9 2 -9 11 -16 14 -19 7 -3 -6 -4 -5 -3
2 2 7 12 13 24 13 11 0 23 2 25 5 10 9 107 5 104 -4z m-387 -22 c0 -8 -19 -13
-24 -6 -3 5 1 9 9 9 8 0 15 -2 15 -3z m661 -17 c-10 -9 -11 -8 -5 6 3 10 9 15
12 12 3 -3 0 -11 -7 -18z m1609 13 c0 -3 -22 -6 -50 -8 -27 -1 -50 1 -50 6 0
4 23 7 50 8 28 0 50 -2 50 -6z m44 -2 c-3 -4 -11 -5 -19 -1 -21 7 -19 12 4 10
11 0 18 -5 15 -9z m-157 -5 c-3 -2 -40 -6 -83 -8 -42 -3 -92 -7 -111 -10 -18
-3 -33 -1 -33 4 0 5 7 8 15 7 9 -1 35 0 58 3 54 8 160 10 154 4z m-1712 -13
c3 -5 1 -10 -4 -10 -6 0 -11 5 -11 10 0 6 2 10 4 10 3 0 8 -4 11 -10z m50 0
c3 -6 -1 -7 -9 -4 -18 7 -21 14 -7 14 6 0 13 -4 16 -10z m60 0 c3 -6 -1 -7 -9
-4 -18 7 -21 14 -7 14 6 0 13 -4 16 -10z m299 2 c3 -5 -1 -9 -9 -9 -8 0 -12 4
-9 9 3 4 7 8 9 8 2 0 6 -4 9 -8z m976 -8 c0 -8 -5 -12 -10 -9 -6 4 -8 11 -5
16 9 14 15 11 15 -7z m17 -6 c-3 -8 -6 -5 -6 6 -1 11 2 17 5 13 3 -3 4 -12 1
-19z m67 14 c2 -4 -7 -9 -22 -10 -21 -1 -24 0 -12 8 18 12 27 12 34 2z m-1964
-36 c0 10 73 9 90 -1 6 -3 10 -1 10 5 0 7 5 8 13 3 6 -4 49 -8 94 -9 70 -1 81
1 76 15 -4 14 -3 14 6 1 16 -23 13 -36 -9 -36 -11 0 -20 3 -20 6 0 3 -61 5
-136 5 -116 0 -138 3 -155 18 -10 10 -19 21 -19 24 0 4 11 -4 25 -17 14 -13
25 -19 25 -14z m1250 19 c-11 -13 -8 -15 25 -9 26 4 35 2 30 -5 -3 -6 -10 -9
-15 -6 -5 3 -11 1 -15 -5 -4 -6 -13 -7 -23 -1 -9 4 -26 7 -36 5 -46 -7 -96 -8
-102 -1 -4 4 -2 7 5 7 7 0 9 5 5 13 -6 9 -4 9 7 1 17 -14 77 -16 85 -3 3 5 9
7 14 4 5 -3 11 -1 15 5 3 5 9 10 12 10 3 0 0 -7 -7 -15z m595 4 c-5 -8 -145
-9 -145 -1 0 4 33 7 74 7 41 0 73 -3 71 -6z m-754 -13 c5 3 9 0 9 -5 0 -6 -3
-12 -7 -12 -37 -6 -53 -4 -57 8 -4 10 -1 11 14 3 25 -13 30 -13 26 3 -1 6 -1
9 1 4 3 -4 9 -5 14 -1z m259 -1 c0 -9 -6 -12 -16 -8 -13 5 -13 7 -2 14 17 11
18 11 18 -6z m70 5 c13 7 21 7 25 0 3 -5 -2 -10 -12 -11 -10 0 -30 -2 -45 -3
-16 -1 -28 2 -28 5 0 11 34 16 38 7 2 -4 12 -3 22 2z m85 -1 c4 -5 -5 -9 -19
-9 -14 0 -26 4 -26 8 0 11 39 12 45 1z m35 1 c0 -5 -2 -10 -4 -10 -3 0 -8 5
-11 10 -3 6 -1 10 4 10 6 0 11 -4 11 -10z m40 6 c0 -2 -7 -6 -15 -10 -8 -3
-15 -1 -15 4 0 6 7 10 15 10 8 0 15 -2 15 -4z m107 -2 c-8 -9 -97 -11 -97 -3
0 3 23 7 52 8 28 0 48 -2 45 -5z m-856 -37 c-6 -6 -11 -7 -11 -1 0 5 -36 8
-86 6 -47 -2 -84 0 -81 5 3 5 44 8 91 8 53 -1 86 3 87 10 0 5 3 4 6 -3 3 -8 0
-19 -6 -25z m114 23 c-3 -5 -1 -10 4 -10 6 0 11 5 11 11 0 5 5 7 10 4 19 -12
10 -21 -20 -21 -31 0 -40 10 -17 19 18 8 19 8 12 -3z m-570 -13 c6 1 27 3 47
6 21 3 40 1 44 -4 3 -6 12 -6 22 0 10 6 23 6 34 0 12 -6 18 -6 18 1 0 5 5 10
10 10 6 0 10 -6 10 -12 0 -10 -29 -13 -110 -13 -60 0 -110 3 -110 8 0 4 -5 7
-11 7 -5 0 -7 -5 -3 -12 4 -7 3 -8 -5 -4 -19 12 -1 27 22 20 12 -4 27 -7 32
-7z m256 -1 c5 3 9 0 9 -6 0 -7 -7 -9 -16 -6 -9 3 -25 6 -37 7 -20 1 -20 2 3
8 14 4 27 4 28 -1 2 -4 8 -6 13 -2z m226 -8 c-3 -8 -6 -5 -6 6 -1 11 2 17 5
13 3 -3 4 -12 1 -19z m53 10 c0 -4 -6 -8 -14 -8 -8 0 -17 4 -20 8 -2 4 4 8 15
8 10 0 19 -4 19 -8z m110 4 c0 -5 -7 -9 -15 -9 -8 0 -15 4 -15 9 0 4 7 8 15 8
8 0 15 -4 15 -8z m735 -571 c3 -5 2 -12 -3 -15 -5 -3 -9 1 -9 9 0 17 3 19 12
6z m107 -53 c-9 -9 -15 -9 -24 1 -11 10 -10 11 5 6 10 -5 17 -2 17 6 0 7 3 9
7 6 4 -4 1 -13 -5 -19z m-62 -6 c0 -7 5 -10 10 -7 6 3 10 3 10 -2 -1 -32 -51
-50 -81 -30 -13 10 -17 17 -10 22 6 3 8 11 5 17 -4 7 -2 8 4 4 7 -4 12 -3 12
1 0 5 11 9 25 9 14 0 25 -6 25 -14z m360 -57 c7 -11 1 -8 -14 8 -15 15 -31 27
-37 27 -6 0 -7 4 -4 10 6 10 29 -9 55 -45z m-300 31 c0 -2 -7 -7 -16 -10 -8
-3 -12 -2 -9 4 6 10 25 14 25 6z m170 0 c0 -2 -7 -7 -16 -10 -8 -3 -12 -2 -9
4 6 10 25 14 25 6z m56 -8 c-1 -7 -7 -22 -13 -34 -21 -37 -3 -79 31 -70 20 5
20 4 2 -9 -16 -12 -20 -12 -33 0 -20 20 -24 54 -11 79 7 11 13 24 14 29 3 15
4 17 8 17 2 0 3 -6 2 -12z m-1428 -24 c2 -1 -4 -4 -13 -8 -11 -4 -14 -2 -9 6
4 7 3 8 -4 4 -7 -4 -12 -1 -12 10 0 14 2 15 18 3 9 -7 18 -14 20 -15z m-278 6
c0 -5 -2 -10 -4 -10 -3 0 -8 5 -11 10 -3 6 -1 10 4 10 6 0 11 -4 11 -10z m235
-10 c5 -15 12 -19 26 -15 25 8 24 -7 -2 -23 -15 -10 -19 -10 -13 -1 5 9 -1 10
-27 6 -21 -4 -29 -4 -20 2 9 6 10 11 3 15 -14 9 -4 36 13 36 8 0 17 -9 20 -20z
m1216 -13 c-10 -9 -11 -8 -5 6 3 10 9 15 12 12 3 -3 0 -11 -7 -18z m106 8 c0
-8 -4 -15 -9 -15 -10 0 -11 14 -1 23 9 10 10 9 10 -8z m-1682 -32 c-14 -21
-25 -43 -25 -50 0 -6 -4 -14 -9 -17 -16 -11 1 38 26 72 33 44 40 41 8 -5z m59
29 c3 -5 -1 -9 -9 -9 -8 0 -15 4 -15 9 0 4 4 8 9 8 6 0 12 -4 15 -8z m1591 -2
c3 -6 -1 -7 -9 -4 -18 7 -21 14 -7 14 6 0 13 -4 16 -10z m-1524 -17 c13 -16
12 -17 -3 -4 -10 7 -18 15 -18 17 0 8 8 3 21 -13z m174 -2 c-3 -5 -1 -12 5
-16 5 -3 10 -11 10 -18 0 -6 -6 -2 -14 8 -13 18 -13 35 0 35 3 0 3 -4 -1 -9z
m1215 -24 c0 -5 6 -5 13 -2 6 4 1 -2 -12 -13 -19 -16 -21 -20 -8 -25 11 -4 20
3 28 22 11 24 15 27 27 15 7 -8 18 -12 23 -8 5 3 12 -3 16 -12 6 -16 7 -16 14
2 7 17 8 17 8 1 1 -10 6 -15 11 -12 6 3 10 1 10 -6 0 -8 4 -8 15 1 13 10 19
10 34 -4 14 -13 21 -14 27 -5 5 9 10 8 20 -5 7 -10 15 -17 18 -17 27 3 46 -1
46 -10 0 -5 -4 -7 -10 -4 -5 3 -10 0 -10 -9 0 -19 20 -26 44 -14 14 7 17 7 14
-3 -5 -14 -58 -21 -58 -8 0 4 -13 4 -29 -1 -29 -8 -41 -5 -41 11 0 5 6 6 13 3
7 -2 13 4 14 16 2 22 -22 28 -30 8 -3 -7 -6 -4 -6 7 -1 15 -4 16 -13 7 -15
-15 -28 -15 -28 -1 0 5 5 7 10 4 6 -3 10 1 10 9 0 20 -5 20 -24 0 -9 -9 -16
-11 -16 -4 0 6 -4 8 -10 5 -5 -3 -10 -1 -10 5 0 6 -4 8 -10 5 -15 -9 -12 -25
5 -25 8 0 15 -5 15 -11 0 -5 4 -8 9 -4 5 3 12 1 16 -4 3 -6 12 -8 19 -5 8 3
17 1 21 -5 4 -7 -2 -10 -17 -7 -13 3 -23 5 -23 6 0 1 -8 3 -17 6 -10 2 -26 6
-35 8 -10 3 -20 5 -23 6 -3 1 -8 2 -12 1 -5 0 -8 4 -8 9 0 5 -3 9 -7 9 -5 -1
-10 -1 -13 1 -3 1 -15 3 -28 6 -29 5 -61 33 -40 35 7 1 17 1 21 0 5 -1 6 3 3
8 -3 5 -15 7 -26 4 -19 -5 -29 15 -15 29 8 7 55 -15 55 -25z m411 16 c1 -18
-1 -46 -5 -50 -7 -8 -55 -10 -51 -2 4 5 10 7 15 4 5 -3 15 2 24 11 12 12 13
20 6 35 -7 13 -7 19 0 19 5 0 11 -8 11 -17z m-1850 -23 c12 -33 12 -40 2 -39
-5 1 -7 5 -6 10 2 4 -2 20 -7 34 -5 14 -7 25 -4 25 3 0 10 -13 15 -30z m100
-7 c-12 -20 -14 -14 -5 12 4 9 9 14 11 11 3 -2 0 -13 -6 -23z m70 14 c-6 -8
-8 -16 -5 -19 3 -3 1 -9 -4 -12 -6 -3 -9 0 -8 6 2 16 15 38 23 38 3 0 0 -6 -6
-13z m-36 -17 c-3 -5 -12 -10 -18 -10 -7 0 -6 4 3 10 19 12 23 12 15 0z m230
-20 c3 -5 1 -10 -5 -10 -6 0 -8 -6 -4 -12 4 -7 -1 -5 -12 4 -13 12 -24 14 -34
8 -8 -5 -25 -10 -38 -10 -16 0 -21 -4 -16 -12 4 -7 4 -10 -1 -6 -4 4 -13 4
-19 -2 -7 -5 -18 -5 -25 0 -10 6 -1 12 30 20 24 7 53 16 64 20 28 12 53 12 60
0z m-25 -35 c0 -2 -6 -5 -13 -8 -8 -3 -14 1 -14 8 0 7 6 11 14 8 7 -3 13 -6
13 -8z m-435 -5 c7 -11 75 -7 97 5 10 6 11 5 1 -5 -13 -14 -116 -23 -108 -10
3 5 -1 11 -7 13 -9 4 -10 6 -1 6 6 1 15 -3 18 -9z m279 -2 c-19 -33 -27 -38
-40 -27 -9 7 -14 7 -14 1 0 -5 7 -15 16 -23 13 -10 17 -10 24 1 5 7 16 15 24
17 35 7 41 9 54 16 8 5 12 2 12 -8 0 -9 -4 -14 -9 -10 -5 3 -13 0 -16 -6 -4
-5 -13 -8 -21 -5 -8 3 -14 1 -14 -4 0 -6 -3 -9 -7 -8 -5 1 -18 -3 -29 -10 -12
-6 -24 -8 -28 -5 -3 3 -6 1 -6 -5 0 -7 -3 -11 -7 -11 -5 1 -10 0 -13 -1 -3 -1
-22 -3 -42 -4 -36 -3 -52 8 -26 16 7 3 9 11 4 24 -5 11 -10 14 -13 7 -2 -7
-10 -10 -18 -7 -14 6 -15 -12 -2 -33 4 -6 2 -15 -4 -19 -7 -4 -9 -3 -5 4 3 6
2 13 -4 17 -5 3 -10 1 -10 -6 0 -7 -3 -9 -6 -6 -4 4 -2 12 4 20 8 10 7 13 -6
14 -9 0 -27 3 -40 7 -16 3 -22 1 -19 -7 2 -7 14 -11 25 -11 12 1 22 -5 22 -12
0 -8 -6 -11 -17 -7 -55 19 -60 56 -7 47 20 -3 43 -2 52 2 10 4 33 8 52 9 19 1
34 6 33 12 -1 5 8 9 20 8 12 -1 28 2 35 8 8 7 12 5 12 -7 0 -10 5 -14 10 -11
6 4 8 10 5 15 -3 4 1 11 7 13 19 8 20 8 12 -5z m109 -13 c-5 -13 -23 -22 -23
-11 0 15 14 35 21 31 4 -3 6 -12 2 -20z m1519 10 c7 -10 -9 -35 -23 -35 -5 0
-9 5 -9 11 0 5 4 8 9 4 5 -3 12 -1 16 5 6 10 -1 12 -42 13 -13 0 -23 3 -23 8
0 11 64 6 72 -6z m-1602 -9 c0 -3 -4 -8 -10 -11 -5 -3 -10 -1 -10 4 0 6 5 11
10 11 6 0 10 -2 10 -4z"/>
<path d="M3105 4710 c-3 -5 -1 -19 5 -30 6 -11 8 -20 4 -20 -3 0 -1 -7 6 -15
11 -13 14 -13 26 2 10 15 10 19 -2 26 -8 4 -14 17 -14 27 0 21 -15 27 -25 10z
m35 -51 c0 -5 -4 -9 -8 -9 -5 0 -9 7 -9 15 0 8 4 12 9 9 4 -3 8 -9 8 -15z"/>
<path d="M640 4531 c0 -5 5 -13 10 -16 6 -3 10 -2 10 4 0 5 -4 13 -10 16 -5 3
-10 2 -10 -4z"/>
<path d="M2830 3976 c0 -2 8 -10 18 -17 15 -13 16 -12 3 4 -13 16 -21 21 -21
13z"/>
<path d="M2776 3358 c3 -5 10 -6 15 -3 13 9 11 12 -6 12 -8 0 -12 -4 -9 -9z"/>
<path d="M2486 1768 c5 -8 2 -9 -9 -5 -10 3 -17 2 -17 -3 0 -18 5 -25 15 -21
6 2 15 4 22 4 8 0 9 6 2 19 -5 10 -12 18 -15 18 -3 0 -2 -5 2 -12z"/>
<path d="M1296 1712 c-3 -6 -1 -14 5 -17 15 -10 25 3 12 16 -7 7 -13 7 -17 1z"/>
<path d="M2517 1632 c-10 -2 -17 -8 -15 -14 2 -5 6 -8 9 -6 3 2 18 -6 34 -16
22 -14 26 -15 17 -4 -10 13 -10 17 0 20 19 7 -23 25 -45 20z"/>
<path d="M2715 1571 c-3 -5 0 -13 6 -17 7 -4 9 -3 5 4 -3 5 0 13 6 15 9 4 10
6 1 6 -6 1 -14 -3 -18 -8z"/>
<path d="M1119 1534 c-15 -19 -21 -47 -8 -38 5 3 7 11 3 17 -3 7 2 3 10 -7 14
-18 20 -15 17 6 0 3 11 5 25 3 24 -2 24 -2 7 17 -10 11 -19 15 -21 9 -2 -6 -8
-11 -13 -11 -6 0 -7 5 -4 10 10 16 -1 12 -16 -6z"/>
<path d="M4145 5073 c-104 -55 -128 -150 -80 -328 22 -80 24 -114 10 -149 -8
-18 -7 -18 20 0 21 14 43 17 99 15 153 -6 192 -4 238 17 79 35 131 135 104
202 -24 61 -97 110 -153 103 -27 -3 -31 -1 -29 14 11 57 -76 143 -143 143 -20
-1 -49 -8 -66 -17z"/>
<path d="M5410 4419 c-52 -45 -214 -180 -360 -302 -146 -121 -267 -223 -270
-227 -3 -3 -30 -25 -60 -50 -30 -25 -57 -47 -60 -50 -3 -3 -58 -50 -122 -104
-103 -85 -123 -107 -164 -179 -25 -45 -70 -122 -99 -172 -29 -49 -178 -306
-330 -570 -153 -264 -315 -544 -361 -623 -46 -79 -84 -147 -84 -152 0 -6 8
-10 18 -11 20 0 766 0 798 1 16 0 28 16 52 68 26 58 604 1297 722 1547 23 50
53 113 65 140 12 28 42 91 65 140 23 50 57 122 75 160 18 39 70 149 115 245
79 168 102 221 97 220 -1 -1 -45 -37 -97 -81z"/>
<path d="M5532 4023 c-55 -153 -135 -372 -177 -488 -42 -115 -80 -219 -85
-230 -4 -11 -29 -77 -54 -148 l-46 -127 377 -448 c207 -246 408 -483 445 -527
l68 -80 -57 -12 c-66 -14 -212 -40 -833 -148 -239 -42 -469 -82 -510 -90 -90
-17 -112 -21 -212 -37 -43 -6 -78 -14 -78 -17 0 -3 626 -6 1391 -6 1294 0
1390 1 1386 17 -3 9 -139 247 -302 530 -164 282 -307 529 -318 548 -10 19
-203 352 -427 740 -224 388 -418 723 -430 745 -12 22 -25 44 -29 48 -4 4 -53
-117 -109 -270z"/>
</g>
</svg>
